<svg xmlns="http://www.w3.org/2000/svg" viewBox="0 0 500 500"><g id="freepik--Floor--inject-80"><path id="freepik--floor--inject-80" d="M83.38,252.09c-93.86,54.18-93.86,142,0,196.23s246,54.19,339.89,0,93.86-142,0-196.23S177.23,197.9,83.38,252.09Z" style="fill:#fafafa"></path></g><g id="freepik--Diplomas--inject-80"><g id="freepik--Diploma--inject-80"><g id="freepik--Window--inject-80"><polygon points="186.37 97.06 187.66 97.81 220 79.13 218.71 78.39 186.37 97.06" style="fill:#f0f0f0"></polygon><polygon points="218.71 78.39 187.66 96.31 187.66 69.4 218.71 51.48 218.71 78.39" style="fill:#fafafa"></polygon><path d="M221.29,48.49,186.36,68.65v31.4l34.93-20.17ZM220,79.13,187.66,97.81V69.4L220,50.73Z" style="fill:#ebebeb"></path><polygon points="220 79.13 218.71 78.39 218.71 51.48 220 50.73 220 79.13" style="fill:#e0e0e0"></polygon><polygon points="221.29 48.49 220 47.74 185.07 67.91 186.36 68.66 221.29 48.49" style="fill:#f5f5f5"></polygon><polygon points="185.07 67.91 186.36 68.66 186.37 100.05 185.07 99.3 185.07 67.91" style="fill:#e0e0e0"></polygon></g><path d="M212.62,73.86c1.2-.69,2.18-.13,2.18,1.26a4.81,4.81,0,0,1-2.18,3.78c-1.21.7-2.19.14-2.19-1.26A4.83,4.83,0,0,1,212.62,73.86Z" style="fill:#e0e0e0"></path><path d="M195,68.18l16.44-9.5c.46-.27.83,0,.83.47v.05a1.84,1.84,0,0,1-.83,1.44L195,70.14c-.46.27-.83,0-.83-.47v-.06A1.81,1.81,0,0,1,195,68.18Z" style="fill:#e0e0e0"></path><path d="M192.37,75.66,214,63.16c.46-.26.83-.14.83.27a1.66,1.66,0,0,1-.83,1.23l-21.66,12.5c-.45.27-.82.14-.82-.27A1.68,1.68,0,0,1,192.37,75.66Z" style="fill:#f0f0f0"></path><path d="M192.37,78.64,214,66.15c.46-.27.83-.15.83.27a1.64,1.64,0,0,1-.83,1.22L192.35,80.15c-.45.26-.82.14-.82-.28A1.72,1.72,0,0,1,192.37,78.64Z" style="fill:#f0f0f0"></path><path d="M192.37,81.63,214,69.13c.46-.26.83-.14.83.27a1.68,1.68,0,0,1-.83,1.23l-21.66,12.5c-.45.26-.82.14-.82-.27A1.68,1.68,0,0,1,192.37,81.63Z" style="fill:#f0f0f0"></path><path d="M208.73,80.25a1.11,1.11,0,0,1-.54.14c-.46,0-.42-.47-.4-.79,0-.15-.2-.37-.31-.18-.28.5-.63,1-.94,1.47-.18.3-.53,1-1,.88-.18,0-.24-.24-.24-.48a2.43,2.43,0,0,0,.29-1.35c0-.14-.26-.32-.33-.13a4.29,4.29,0,0,0-.28,1.25,8.58,8.58,0,0,1-.7,1c-.15.2-.28.42-.45.61s-.12.16-.18.17-.14-.07-.16-.17a1.14,1.14,0,0,1,.08-.44h0s0,0,0,0h0c0-.15-.19-.37-.27-.18a6.65,6.65,0,0,1-1.26,2.11l-.09.07a2.3,2.3,0,0,0,0-.26,2.35,2.35,0,0,0-.1-.59c0-.09-.2-.24-.29-.11a10.52,10.52,0,0,1-1.44,2,2.44,2.44,0,0,1-.3.21c-.1-.06.05-.58.07-.66.06-.24.14-.46.21-.69a3,3,0,0,0,.18-.58c0-.18-.28-.45-.34-.21s-.11.34-.2.63A14.52,14.52,0,0,1,198.52,86a4.64,4.64,0,0,1-1.69,1.63c-.19.11-.55.26-.76.1s-.19-.41-.2-.61a5.47,5.47,0,0,1,.2-1.5A9.14,9.14,0,0,0,198,84.31a6.85,6.85,0,0,0,1.42-1.57c.19-.35.3-.92-.16-1.12a1.31,1.31,0,0,0-1,.24,4.55,4.55,0,0,0-1,.81A6,6,0,0,0,195.87,85c0,.13-.09.31-.14.51a4,4,0,0,1-2.39.4s-.06.09,0,.1a3.82,3.82,0,0,0,2.33-.22c-.21.91-.33,2.1.52,2.33s1.85-.82,2.31-1.42a10.78,10.78,0,0,0,.9-1.46.44.44,0,0,1,.08-.11c0,.42.08.72.49.65s.8-.66,1-1,.41-.61.61-.93c0,.38.11.81.47.74s.66-.7.83-1,.29-.44.41-.67a.42.42,0,0,0,.08.12c.3.32.65,0,.85-.28s.58-.74.84-1.15a.68.68,0,0,0,.36.4c.46.22.9-.16,1.16-.5a9.62,9.62,0,0,0,.87-1.4.68.68,0,0,0,.32.44,1,1,0,0,0,1.09-.07C209,80.48,208.88,80.17,208.73,80.25Zm-10.12,1.81c.21-.11.66-.29.68.07s-.18.47-.29.63a8.41,8.41,0,0,1-1.26,1.34,10,10,0,0,1-1.58,1.2A5.1,5.1,0,0,1,198.61,82.06Z" style="fill:#e0e0e0"></path></g><g id="freepik--diploma--inject-80"><g id="freepik--window--inject-80"><polygon points="186.37 140.92 187.66 141.67 220 123 218.71 122.25 186.37 140.92" style="fill:#f0f0f0"></polygon><polygon points="218.71 122.25 187.66 140.18 187.66 113.27 218.71 95.34 218.71 122.25" style="fill:#fafafa"></polygon><path d="M221.29,92.35l-34.93,20.17v31.39l34.93-20.16ZM220,123l-32.34,18.67v-28.4L220,94.6Z" style="fill:#ebebeb"></path><polygon points="220 123 218.71 122.25 218.71 95.34 220 94.6 220 123" style="fill:#e0e0e0"></polygon><polygon points="221.29 92.36 220 91.61 185.07 111.77 186.36 112.52 221.29 92.36" style="fill:#f5f5f5"></polygon><polygon points="185.07 111.77 186.36 112.52 186.37 143.91 185.07 143.16 185.07 111.77" style="fill:#e0e0e0"></polygon></g><path d="M212.62,117.73c1.2-.7,2.18-.13,2.18,1.26a4.84,4.84,0,0,1-2.18,3.78c-1.21.7-2.19.13-2.19-1.26A4.81,4.81,0,0,1,212.62,117.73Z" style="fill:#e0e0e0"></path><path d="M195,112l16.44-9.5c.46-.26.83-.05.83.48v0a1.81,1.81,0,0,1-.83,1.43L195,114c-.46.26-.83,0-.83-.48v0A1.84,1.84,0,0,1,195,112Z" style="fill:#e0e0e0"></path><path d="M192.37,119.52,214,107c.46-.26.83-.14.83.27a1.64,1.64,0,0,1-.83,1.22L192.35,121c-.45.26-.82.14-.82-.28A1.72,1.72,0,0,1,192.37,119.52Z" style="fill:#f0f0f0"></path><path d="M192.37,122.51,214,110c.46-.26.83-.14.83.27a1.66,1.66,0,0,1-.83,1.23L192.35,124c-.45.27-.82.14-.82-.27A1.68,1.68,0,0,1,192.37,122.51Z" style="fill:#f0f0f0"></path><path d="M192.37,125.49,214,113c.46-.27.83-.14.83.27a1.64,1.64,0,0,1-.83,1.22L192.35,127c-.45.26-.82.14-.82-.28A1.72,1.72,0,0,1,192.37,125.49Z" style="fill:#f0f0f0"></path><path d="M208.73,124.12a1.24,1.24,0,0,1-.54.14c-.46,0-.42-.47-.4-.8,0-.14-.2-.37-.31-.18-.28.51-.63,1-.94,1.47-.18.3-.53,1-1,.89-.18,0-.24-.24-.24-.49a2.41,2.41,0,0,0,.29-1.35c0-.14-.26-.31-.33-.12a4.29,4.29,0,0,0-.28,1.24,7.26,7.26,0,0,1-.7,1,6.85,6.85,0,0,1-.45.61c0,.05-.12.16-.18.17s-.14-.06-.16-.16a1.19,1.19,0,0,1,.08-.45h0a0,0,0,0,1,0,0h0c0-.15-.19-.36-.27-.18a6.7,6.7,0,0,1-1.26,2.12l-.09.07a2.06,2.06,0,0,0,0-.26,2.35,2.35,0,0,0-.1-.59c0-.09-.2-.24-.29-.11a10.52,10.52,0,0,1-1.44,2l-.3.21c-.1-.06.05-.58.07-.66.06-.24.14-.47.21-.7a2.7,2.7,0,0,0,.18-.57c0-.18-.28-.45-.34-.21,0,.09-.11.33-.2.62a14.63,14.63,0,0,1-1.21,2.06,4.64,4.64,0,0,1-1.69,1.63c-.19.1-.55.25-.76.1s-.19-.42-.2-.61a5.47,5.47,0,0,1,.2-1.5,9.54,9.54,0,0,0,1.88-1.32,6.7,6.7,0,0,0,1.42-1.58c.19-.34.3-.91-.16-1.11s-.74.09-1,.24a4.51,4.51,0,0,0-1,.8,6.06,6.06,0,0,0-1.29,2.36c0,.14-.09.31-.14.52a4.08,4.08,0,0,1-2.39.4s-.06.09,0,.1a4,4,0,0,0,2.33-.22c-.21.9-.33,2.1.52,2.33s1.85-.82,2.31-1.43a10.78,10.78,0,0,0,.9-1.46.76.76,0,0,1,.08-.11c0,.42.08.73.49.66s.8-.66,1-1,.41-.62.61-.93c0,.38.11.81.47.73s.66-.7.83-1,.29-.45.41-.68a.32.32,0,0,0,.08.12c.3.33.65,0,.85-.27s.58-.75.84-1.15a.71.71,0,0,0,.36.4c.46.22.9-.16,1.16-.51a9,9,0,0,0,.87-1.39.68.68,0,0,0,.32.44,1.09,1.09,0,0,0,1.09-.07C209,124.35,208.88,124,208.73,124.12Zm-10.12,1.8c.21-.1.66-.29.68.07s-.18.47-.29.64a8.41,8.41,0,0,1-1.26,1.34,11.34,11.34,0,0,1-1.58,1.2A5.09,5.09,0,0,1,198.61,125.92Z" style="fill:#e0e0e0"></path></g></g><g id="freepik--Board--inject-80"><g id="freepik--board--inject-80"><g id="freepik--board--inject-80"><path d="M164.07,43.13l.89.51V155c0,2.9-1.76,6.27-3.93,7.53L40.09,232.38a2.57,2.57,0,0,1-2.46.27c-.2-.1-.87-.5-1-.59a3.47,3.47,0,0,1-1.35-3.17V117.5Z" style="fill:#e0e0e0"></path><path d="M38.53,232.37c-1.15,0-1.9-1.16-1.9-3V118.29L164.48,44.48V155c0,2.74-1.66,5.93-3.7,7.11L39.85,232a2.58,2.58,0,0,1-1.32.41Z" style="fill:#fafafa"></path><path d="M164,45.31V155c0,2.55-1.58,5.61-3.46,6.69L39.61,231.55a2.28,2.28,0,0,1-1.08.34c-1.05,0-1.42-1.34-1.42-2.49V118.57L164,45.31m1-1.67L36.15,118V229.4c0,2.16,1,3.45,2.38,3.45a3.16,3.16,0,0,0,1.56-.47L161,162.57c2.17-1.26,3.93-4.63,3.93-7.53V43.64Z" style="fill:#e0e0e0"></path></g><g id="freepik--Tube--inject-80"><path d="M35.51,121.82l-3-5.23L164.34,40.48h0a1.47,1.47,0,0,1,1.55.11A4.72,4.72,0,0,1,168,44.3a1.51,1.51,0,0,1-.59,1.34h0l0,0h0Z" style="fill:#f0f0f0"></path><path d="M36.15,120.43A4.7,4.7,0,0,0,34,116.74c-1.18-.68-2.13-.13-2.13,1.23A4.7,4.7,0,0,0,34,121.66C35.2,122.34,36.15,121.79,36.15,120.43Z" style="fill:#e0e0e0"></path></g><path d="M135.35,121.89a.48.48,0,0,1-.24-.9l15.68-9a.48.48,0,1,1,.48.83l-15.68,9.06A.5.5,0,0,1,135.35,121.89Z" style="fill:#e0e0e0"></path><path d="M135.35,126.32a.48.48,0,0,1-.24-.9l15.68-9a.48.48,0,1,1,.48.83l-15.68,9.06A.5.5,0,0,1,135.35,126.32Z" style="fill:#e0e0e0"></path><path d="M135.35,130.75a.48.48,0,0,1-.24-.9l15.68-9a.48.48,0,1,1,.48.83l-15.68,9.05A.42.42,0,0,1,135.35,130.75Z" style="fill:#e0e0e0"></path><path d="M135.35,135.18a.47.47,0,0,1-.31-.12l-14-12.08a.48.48,0,0,1,.63-.73l13.72,11.86,15.38-8.88a.48.48,0,1,1,.48.83l-15.68,9.05A.4.4,0,0,1,135.35,135.18Z" style="fill:#e0e0e0"></path><path d="M128.08,158.5a.5.5,0,0,1-.42-.24.49.49,0,0,1,.18-.66l15.68-9a.48.48,0,0,1,.66.17.49.49,0,0,1-.18.66l-15.68,9.06A.5.5,0,0,1,128.08,158.5Z" style="fill:#e0e0e0"></path><path d="M128.08,162.93a.5.5,0,0,1-.42-.24.49.49,0,0,1,.18-.66L143.52,153a.48.48,0,0,1,.66.17.49.49,0,0,1-.18.66l-15.68,9.06A.5.5,0,0,1,128.08,162.93Z" style="fill:#e0e0e0"></path><path d="M128.08,167.36a.5.5,0,0,1-.42-.24.49.49,0,0,1,.18-.66l15.68-9.05a.48.48,0,0,1,.66.17.49.49,0,0,1-.18.66l-15.68,9A.42.42,0,0,1,128.08,167.36Z" style="fill:#e0e0e0"></path><path d="M128.08,171.79a.45.45,0,0,1-.31-.12l-14-12.08a.48.48,0,0,1,.63-.73l13.72,11.86,15.38-8.88a.48.48,0,0,1,.66.17.49.49,0,0,1-.18.66l-15.68,9.05A.42.42,0,0,1,128.08,171.79Z" style="fill:#e0e0e0"></path><path d="M79.07,178.57a2.32,2.32,0,0,0,.41-.72c.14-.39.06-.59-.17-.46l-15.68,9.06a1.94,1.94,0,0,0-.66.93c-.13.39-.06.59.18.46l15.68-9.06A1.09,1.09,0,0,0,79.07,178.57Z" style="fill:#e0e0e0"></path><path d="M79.07,183a2.32,2.32,0,0,0,.41-.72c.14-.39.06-.59-.17-.46l-15.68,9.06a1.94,1.94,0,0,0-.66.93c-.13.38-.06.59.18.45l15.68-9A1.09,1.09,0,0,0,79.07,183Z" style="fill:#e0e0e0"></path><path d="M79.07,187.43a2.32,2.32,0,0,0,.41-.72c.14-.39.06-.59-.17-.46L63.63,195.3a2,2,0,0,0-.66.94c-.13.38-.06.59.18.45l15.68-9.05A1.09,1.09,0,0,0,79.07,187.43Z" style="fill:#e0e0e0"></path><path d="M79.55,191.63a2.48,2.48,0,0,0,.31-.48l10.4-20.93c.11-.27.22-.58-.09-.78s-.59.15-.73.4L79,190.85l-15.38,8.88a2,2,0,0,0-.66.94c-.13.38-.06.59.18.45l15.68-9.05A5.16,5.16,0,0,0,79.55,191.63Z" style="fill:#e0e0e0"></path><path d="M62.11,159.75a2.29,2.29,0,0,0,.42-.73c.13-.38.06-.58-.17-.45l-15.69,9.05a2,2,0,0,0-.65.94c-.14.38-.06.59.17.45l15.68-9A.9.9,0,0,0,62.11,159.75Z" style="fill:#e0e0e0"></path><path d="M62.11,164.18a2.29,2.29,0,0,0,.42-.73c.13-.38.06-.58-.17-.45l-15.69,9.05A2,2,0,0,0,46,173c-.14.38-.06.59.17.45l15.68-9.05A.9.9,0,0,0,62.11,164.18Z" style="fill:#e0e0e0"></path><path d="M62.11,168.6a2.24,2.24,0,0,0,.42-.72c.13-.38.06-.58-.17-.45l-15.69,9a2,2,0,0,0-.65.94c-.14.38-.06.59.17.45l15.68-9.05A1,1,0,0,0,62.11,168.6Z" style="fill:#e0e0e0"></path><path d="M62.6,172.81a2.48,2.48,0,0,0,.31-.48L73.3,151.4c.12-.27.23-.58-.09-.79s-.58.16-.72.41L62.06,172l-15.39,8.88a2,2,0,0,0-.65.94c-.14.38-.06.59.17.45l15.68-9.05A6.43,6.43,0,0,0,62.6,172.81Z" style="fill:#e0e0e0"></path><g id="freepik--Uterus--inject-80"><path d="M126.87,103.3c-1.27,2.11-1.61,4.08-4,4.46a19,19,0,0,1-5.8.08c-.68-.22-.27-2.69-.27-2.69s-2.14,5.07-1.3,8.13c.63-1.87,1-2.74,2.51-3.42s4.52-1.32,5.43-.25,1.74,4.62,5.5,2.81Z" style="fill:#ED6171"></path><path d="M126.87,103.3c-1.27,2.11-1.61,4.08-4,4.46a19,19,0,0,1-5.8.08c-.68-.22-.27-2.69-.27-2.69s-2.14,5.07-1.3,8.13c.63-1.87,1-2.74,2.51-3.42s4.52-1.32,5.43-.25,1.74,4.62,5.5,2.81Z" style="fill:#fff;opacity:0.6000000000000001"></path><path d="M75.48,133c1.27.65,1.62,2.23,4-.1a67.06,67.06,0,0,0,5.8-6.62c.68-1,.28-3,.28-3a8.24,8.24,0,0,1,1.29,6.63c-.62-1.14-1-1.55-2.51-.52s-4.52,3.9-5.43,6-1.73,6.61-5.5,9.15Z" style="fill:#ED6171"></path><path d="M75.48,133c1.27.65,1.62,2.23,4-.1a67.06,67.06,0,0,0,5.8-6.62c.68-1,.28-3,.28-3a8.24,8.24,0,0,1,1.29,6.63c-.62-1.14-1-1.55-2.51-.52s-4.52,3.9-5.43,6-1.73,6.61-5.5,9.15Z" style="fill:#fff;opacity:0.6000000000000001"></path><path d="M96.27,192.91c1-10.16-1.54-15.18-2.45-22.57s-.47-12.39.92-19.91-2.54-6.75-5.83-14.32-2.45-11.66-4.42-16-12-1.38-16.31-3.75-9.86-1.84-12.31,1.5a8.66,8.66,0,0,0,2,12.48c4.28,3.07,9-3.3,11.78-2.45-2.8,2-1.72,3.84-1.72,3.84S62.81,144,61.93,145.15s0,4.36,0,4.36S51,138.92,51,126.49,60.64,110,66.08,112,75,115.15,81.56,113s9-14.7,19.62-20.81,13,3.67,19.62-1.84,10-10.68,15.48-19,15-15.27,15-2.85-10.9,35.61-10.9,35.61.87-4.23,0-4.36-5.95-6.55-5.95-6.55,1.08-3.05-1.72-1.85c2.76-4,7.5-3.14,11.78-11.16s4.91-14.12,1.95-14.73c-2.45-.5-8,5.35-12.31,12.72s-14.34,16-16.31,22.58-1.13,9.74-4.42,21.1-7.21,15.14-5.83,21,1.83,10.41.92,18.85-3.43,16.37-2.45,25.39C102.9,186.6,99.64,188.29,96.27,192.91Z" style="fill:#ED6171"></path><path d="M96.27,192.91c1-10.16-1.54-15.18-2.45-22.57s-.47-12.39.92-19.91-2.54-6.75-5.83-14.32-2.45-11.66-4.42-16-12-1.38-16.31-3.75-9.86-1.84-12.31,1.5a8.66,8.66,0,0,0,2,12.48c4.28,3.07,9-3.3,11.78-2.45-2.8,2-1.72,3.84-1.72,3.84S62.81,144,61.93,145.15s0,4.36,0,4.36S51,138.92,51,126.49,60.64,110,66.08,112,75,115.15,81.56,113s9-14.7,19.62-20.81,13,3.67,19.62-1.84,10-10.68,15.48-19,15-15.27,15-2.85-10.9,35.61-10.9,35.61.87-4.23,0-4.36-5.95-6.55-5.95-6.55,1.08-3.05-1.72-1.85c2.76-4,7.5-3.14,11.78-11.16s4.91-14.12,1.95-14.73c-2.45-.5-8,5.35-12.31,12.72s-14.34,16-16.31,22.58-1.13,9.74-4.42,21.1-7.21,15.14-5.83,21,1.83,10.41.92,18.85-3.43,16.37-2.45,25.39C102.9,186.6,99.64,188.29,96.27,192.91Z" style="fill:#fff;opacity:0.8"></path><g style="opacity:0.30000000000000004"><path d="M81.55,115.27c-7,.78-11.15-.19-17.16-2.06s-10.55,2.54-12,8.48c-1.07,4.24.26,11.71,3.53,16.06S61.93,143,61.93,143l3.33-9.45s-3.93,2.27-7.08.22-5.68-6.28-4.8-12,6.12-9,11-7.58A32.48,32.48,0,0,0,81.55,115.27Z" style="fill:#ED6171"></path><path d="M120.8,92.61c7-7.31,11.15-13.06,17.16-21.88s10.55-9.64,12-5.43c1.07,3-.26,12-3.53,20.13a69.72,69.72,0,0,1-6.06,12.22l-3.33-5.6a21.51,21.51,0,0,0,7.08-8c3.15-5.7,5.69-12.84,4.8-17.54s-6.12-1.93-11,5.13S129,84.6,120.8,92.61Z" style="fill:#ED6171"></path><path d="M101.18,109.41c-3.94,2.27-14.87,6.07-19.63,5.86,3.85.13,8.27.88,10.35,3.27s2.29,7.66,3.84,9.74,5.27,3.17,5.44,9.47c.16-6.5,3.87-11.87,5.43-15.75s1.75-9.36,3.84-14.16S117,97.18,120.8,92.61C116,98.31,105.11,107.14,101.18,109.41Z" style="fill:#ED6171"></path><path d="M101.18,188.14a7.13,7.13,0,0,1,3.48-1c0-16.65.75-23.55,2-26.26s1.71-4.51,1.24-4.9-2.68,4-4.32,4.34-2.45-.77-2.45-2.95a7.8,7.8,0,0,1-2.46,5.78c-1.64,1.56-3.83-.29-4.31.65s-.07,2.27,1.23,3.48,2,7.23,2,23.88a14.76,14.76,0,0,1,3.49-3" style="fill:#ED6171"></path><path d="M101.18,137.75c.23,3.14.29,6.37.3,9.64s-.07,6.58-.3,10c-.24-3.13-.3-6.37-.31-9.63S100.94,141.16,101.18,137.75Z" style="fill:#ED6171"></path></g><path d="M76.64,138.31c-.74,4.5-4.68,8.62-8.79,9.22S61,145,61.74,140.47s4.68-8.63,8.8-9.22S77.39,133.82,76.64,138.31Z" style="fill:#ebebeb"></path><path d="M125.71,110c.74,3.64,4.68,3.22,8.79-.94s6.85-10.47,6.11-14.11-4.68-3.21-8.8.94S125,106.35,125.71,110Z" style="fill:#ebebeb"></path></g></g></g><g id="freepik--Plants--inject-80"><g id="freepik--Plant--inject-80"><g id="freepik--Pot--inject-80"><g id="freepik--pot--inject-80"><path d="M96.38,373H42.47l5.58,23.22h0c.43,2.8,2.49,5.53,6.2,7.67,8.39,4.84,22,4.84,30.36,0,4-2.3,6.06-5.29,6.25-8.31Z" style="fill:#37474f"></path><path d="M89.81,388.93A21.91,21.91,0,0,0,93,386.67l3-12.4a22,22,0,0,1-5.46,4.33c-11.37,6.56-29.6,6.73-41.36.53l1.37-5.53-.42-.58H42.48l5.57,23.21h0c.43,2.8,2.49,5.53,6.2,7.67,6,3.45,14.58,4.43,22.08,3-13.44,1-22.65-4.87-24-10.28-.55-2.16-1.52-6.94-1.52-6.94C62,395.34,79.09,395.11,89.81,388.93Z" style="fill:#263238"></path><path d="M99.18,366.15a11.24,11.24,0,0,1-1.79,4.19,20,20,0,0,1-6.77,6c-11.7,6.76-30.68,6.76-42.38,0a19.83,19.83,0,0,1-6.76-6,11.24,11.24,0,0,1-1.79-4.19h0c-1-5.08,1.81-10.37,8.56-14.27,11.7-6.76,30.68-6.76,42.38,0C97.37,355.78,100.23,361.07,99.18,366.15Z" style="fill:#455a64"></path><path d="M97.39,370.34a20,20,0,0,1-6.77,6c-11.7,6.76-30.68,6.76-42.38,0a19.83,19.83,0,0,1-6.76-6,11.24,11.24,0,0,1-1.79-4.19h0L41,375.28c.61,3.68,3.34,7.26,8.23,10.08,11.15,6.43,29.23,6.43,40.38,0,4.82-2.78,7.56-6.32,8.21-9.95l.07-.46,1.28-8.8A11.24,11.24,0,0,1,97.39,370.34Z" style="fill:#37474f"></path><path d="M87.09,353.92c-9.75-5.64-25.57-5.64-35.31,0-5.52,3.19-7.91,7.49-7.19,11.64.56,3.2,2.95,6.3,7.19,8.74,9.74,5.64,25.56,5.64,35.31,0,4.23-2.44,6.63-5.54,7.18-8.73C95,361.41,92.61,357.11,87.09,353.92Z" style="fill:#263238"></path><path d="M46.24,369.43a16.7,16.7,0,0,0,5.54,4.87c9.74,5.64,25.56,5.64,35.31,0a16.8,16.8,0,0,0,5.54-4.87c-.07-3.38-2.33-6.73-6.79-9.31-9.06-5.23-23.76-5.23-32.81,0C48.57,362.7,46.31,366.06,46.24,369.43Z" style="fill:#fafafa"></path></g><g id="freepik--plants--inject-80"><path d="M82.79,295.6,69.64,307l12.9-6.62a36.51,36.51,0,0,1-1.76,12.56,79.85,79.85,0,0,0-9.94,7.69l9.92-4.41s1,6.62-1.37,16.88c-.61,2.68-3.38,7.88-5.11,11.75A42.79,42.79,0,0,1,71.56,350c0,.11-.12.21-.18.32q-3.55-1.85-7.36-3.54c-1.76-3.34-4.23-11.67-5.28-18.54-4-26.28,15.31-42.25,31.15-48A48,48,0,0,0,82.79,295.6Z" style="fill:#ED6171"></path><path d="M71.46,297.19c-2.66,2.9-4.13,6.65-5.22,10.38a53.58,53.58,0,0,0-1.94,11.52,49.56,49.56,0,0,0,3.85,22.81h0a.38.38,0,0,1-.2.5.39.39,0,0,1-.5-.2h0a50.12,50.12,0,0,1-3.53-23.14,53.91,53.91,0,0,1,2.13-11.56C67.21,303.79,68.75,300.05,71.46,297.19Z" style="fill:#fff"></path><path d="M23.47,310.69l0,0a217.27,217.27,0,0,1,13.22,22.48l14.42,3.63-11,.95,5,9.67,14.13,4.24-11.4.85s2.17,11.24,9.81,16.51c4.22,2.91,6.14,3.14,7.8,2.34,2-1,3.22-4.05,4.41-8.68s.38-14.26-3.24-23.85a29.06,29.06,0,0,0-4-7.18C53.05,318.89,33.43,311.41,23.47,310.69Z" style="fill:#ED6171"></path><path d="M23.47,310.69l0,0a217.27,217.27,0,0,1,13.22,22.48l14.42,3.63-11,.95,5,9.67,14.13,4.24-11.4.85s2.17,11.24,9.81,16.51c4.22,2.91,6.14,3.14,7.8,2.34,2-1,3.22-4.05,4.41-8.68s.38-14.26-3.24-23.85a29.06,29.06,0,0,0-4-7.18C53.05,318.89,33.43,311.41,23.47,310.69Z" style="opacity:0.1"></path><path d="M38.36,316.81a59.83,59.83,0,0,1,19.11,15.83,40.33,40.33,0,0,1,6.07,10.95,38,38,0,0,1,2.13,12.3,0,0,0,0,1-.08,0,48.61,48.61,0,0,0-2.82-12A44.64,44.64,0,0,0,57,333a60.9,60.9,0,0,0-18.63-16.15,0,0,0,0,1,0-.05A0,0,0,0,1,38.36,316.81Z" style="fill:#fff"></path><path d="M115.21,307.37h0a35,35,0,0,0-4.32.58,69.08,69.08,0,0,0-16.24,5.51c-1.92.91-3.84,1.92-5.71,3-.94.55-1.87,1.13-2.78,1.73A48.57,48.57,0,0,0,74.29,329a31.27,31.27,0,0,0-3.83,6.54c-.13.31-.27.6-.39.91h0c-.3.79-.57,1.57-.82,2.33a41.67,41.67,0,0,0-1.94,20.76c.62,4.93,2.8,10.44,3.84,11.29a3.14,3.14,0,0,0,.46.28c1.49.77,3.69.05,7.68-2.67,8-5.44,10.24-17.64,10.24-17.64l-11.86-.95,14.74-4.32,5.25-10.05-11.39-1,15-3.69a226.4,226.4,0,0,1,13.89-23.32l0,0Z" style="fill:#ED6171"></path><path d="M110.89,308a69.08,69.08,0,0,0-16.24,5.51c-1.92.91-3.84,1.92-5.71,3-.94.55-1.87,1.13-2.78,1.73A48.57,48.57,0,0,0,74.29,329a31.27,31.27,0,0,0-3.83,6.54c-.13.31-.27.6-.39.91h0c-.3.79-.57,1.57-.82,2.33a41.67,41.67,0,0,0-1.94,20.76c.62,4.93,2.8,10.44,3.84,11.29a3.14,3.14,0,0,0,.46.28,2.73,2.73,0,0,0,1,.26c-1.72-7.59.34-27.38,5.35-35.89,5.21-8.85,18.25-22.17,37.27-28.05l0,0A36.4,36.4,0,0,0,110.89,308Z" style="fill:#ED6171"></path><path d="M110.89,308a69.08,69.08,0,0,0-16.24,5.51c-1.92.91-3.84,1.92-5.71,3-.94.55-1.87,1.13-2.78,1.73A48.57,48.57,0,0,0,74.29,329a31.27,31.27,0,0,0-3.83,6.54c-.13.31-.27.6-.39.91h0c-.3.79-.57,1.57-.82,2.33a41.67,41.67,0,0,0-1.94,20.76c.62,4.93,2.8,10.44,3.84,11.29a3.14,3.14,0,0,0,.46.28,2.73,2.73,0,0,0,1,.26c-1.72-7.59.34-27.38,5.35-35.89,5.21-8.85,18.25-22.17,37.27-28.05l0,0A36.4,36.4,0,0,0,110.89,308Z" style="opacity:0.2"></path><path d="M72.52,371.34a66.36,66.36,0,0,1-.4-17.07,55.33,55.33,0,0,1,4.21-16.6A47.91,47.91,0,0,1,86.6,323.94a64.1,64.1,0,0,1,13.85-10.06.07.07,0,0,1,.07,0,.06.06,0,0,1,0,.07,84,84,0,0,0-13.23,10.66,61.45,61.45,0,0,0-5.67,6.29A37,37,0,0,0,77,338a54.27,54.27,0,0,0-4.43,16.32,65.81,65.81,0,0,0,0,17,.05.05,0,0,1-.1,0Z" style="fill:#fff"></path></g></g></g></g><g id="freepik--Shadows--inject-80"><path id="freepik--Shadow--inject-80" d="M92.2,383.26c12.57,7.34,12.57,19.25,0,26.59s-33,7.34-45.54,0-12.57-19.25,0-26.59S79.63,375.92,92.2,383.26Z" style="fill:#e0e0e0"></path><path id="freepik--shadow--inject-80" d="M200.58,466.45,70.13,391.14c-2.5-1.44-2.5-3.79,0-5.23l84-48.47a10,10,0,0,1,9.06,0l130.45,75.32c2.5,1.44,2.5,3.78,0,5.23l-83.95,48.46A10,10,0,0,1,200.58,466.45Z" style="fill:#e0e0e0"></path><path id="freepik--shadow--inject-80" d="M403.32,389.8l-58.89-34c-1.38-.79-1.38-2.08,0-2.88l49.2-28.44a5.52,5.52,0,0,1,5,0l58.89,34c1.37.79,1.37,2.08,0,2.88L408.3,389.8A5.47,5.47,0,0,1,403.32,389.8Z" style="fill:#e0e0e0"></path><ellipse id="freepik--shadow--inject-80" cx="284.79" cy="375.6" rx="60.38" ry="34.86" style="fill:#e0e0e0"></ellipse></g><g id="freepik--Curtains--inject-80"><g id="freepik--curtains--inject-80"><path d="M416.65,65.77V314.83l-11.94-6.89V74.25c0-.93,1.79-2.63,4.6-4.25Z" style="fill:#e0e0e0"></path><path d="M428.81,321.85l-24.1-13.91V74.25a.56.56,0,0,0,.3.5c1.08.62,4.76-.49,8.21-2.48l7-4.08c3.45-2,7.13-3.1,8.21-2.47a.57.57,0,0,1,.32.53Z" style="fill:#ED6171"></path><path d="M428.81,321.85l-24.1-13.91V74.25a.56.56,0,0,0,.3.5c1.08.62,4.76-.49,8.21-2.48l7-4.08c3.45-2,7.13-3.1,8.21-2.47a.57.57,0,0,1,.32.53Z" style="fill:#fff;opacity:0.6000000000000001"></path><path d="M409.11,74.19c-1.88.68-3.45.93-4.09.56a.56.56,0,0,1-.3-.5V307.94l4.4,2.54Z" style="fill:#fff;opacity:0.30000000000000004"></path><path d="M428.49,65.72c-1.08-.63-4.76.48-8.21,2.47l-1.57.91V316l10.1,5.83V66.25A.57.57,0,0,0,428.49,65.72Z" style="opacity:0.1"></path><path d="M428.81,74.14a.56.56,0,0,0-.32-.52c-1.08-.63-4.76.49-8.21,2.48l-7,4.07c-3.46,2-7.13,3.11-8.21,2.48a.55.55,0,0,1-.3-.5v-7.9a.56.56,0,0,0,.3.5c1.08.62,4.75-.49,8.21-2.49l7-4.07c3.45-2,7.13-3.1,8.21-2.48a.59.59,0,0,1,.32.53Z" style="fill:#f0f0f0"></path><path d="M424.58,70.23l-.11,0-7.34,4.24c-2.8,1.61-4.59,3.32-4.59,4.24v233.7l4.4,2.53h0l11.88,6.85V66.25C428.86,67.14,427.21,68.71,424.58,70.23Z" style="fill:#e0e0e0"></path><path d="M436.63,326.37l-24.1-13.91V78.76a.55.55,0,0,0,.3.5c1.08.62,4.75-.49,8.2-2.48l7-4.08c3.46-2,7.14-3.1,8.22-2.47a.58.58,0,0,1,.32.53Z" style="fill:#ED6171"></path><path d="M436.63,326.37l-24.1-13.91V78.76a.55.55,0,0,0,.3.5c1.08.62,4.75-.49,8.2-2.48l7-4.08c3.46-2,7.14-3.1,8.22-2.47a.58.58,0,0,1,.32.53Z" style="fill:#fff;opacity:0.6000000000000001"></path><path d="M416.93,78.71c-1.89.67-3.45.92-4.09.55a.55.55,0,0,1-.3-.5v233.7l4.4,2.54Z" style="fill:#fff;opacity:0.30000000000000004"></path><path d="M436.31,70.23c-1.08-.63-4.76.48-8.22,2.47l-1.56.91V320.54l10.1,5.83V70.76A.58.58,0,0,0,436.31,70.23Z" style="opacity:0.1"></path><path d="M436.63,78.66a.58.58,0,0,0-.32-.53c-1.08-.62-4.76.49-8.21,2.48l-7.05,4.07c-3.46,2-7.13,3.11-8.22,2.48a.55.55,0,0,1-.3-.49V78.76a.58.58,0,0,0,.3.5c1.09.62,4.76-.49,8.22-2.48l7.05-4.07c3.45-2,7.13-3.11,8.21-2.48a.58.58,0,0,1,.32.52Z" style="fill:#f0f0f0"></path><path d="M432.44,74.77l-.11,0L425,79.05c-2.8,1.62-4.59,3.32-4.59,4.25V317l4.4,2.54h0l11.88,6.86V70.79C436.72,71.68,435.07,73.24,432.44,74.77Z" style="fill:#e0e0e0"></path><path d="M444.48,330.9,420.39,317V83.3a.55.55,0,0,0,.29.5c1.08.62,4.76-.49,8.21-2.48L436,77.24c3.46-2,7.14-3.1,8.22-2.47a.56.56,0,0,1,.31.53Z" style="fill:#ED6171"></path><path d="M444.48,330.9,420.39,317V83.3a.55.55,0,0,0,.29.5c1.08.62,4.76-.49,8.21-2.48L436,77.24c3.46-2,7.14-3.1,8.22-2.47a.56.56,0,0,1,.31.53Z" style="fill:#fff;opacity:0.6000000000000001"></path><path d="M424.79,83.24c-1.89.68-3.45.93-4.1.56a.55.55,0,0,1-.29-.5V317l4.4,2.54Z" style="fill:#fff;opacity:0.30000000000000004"></path><path d="M444.17,74.77c-1.08-.63-4.76.48-8.22,2.47l-1.56.91V325.08l10.09,5.82V75.3A.56.56,0,0,0,444.17,74.77Z" style="opacity:0.1"></path><path d="M444.48,83.19a.57.57,0,0,0-.31-.52c-1.09-.63-4.76.49-8.22,2.48l-7.05,4.07c-3.45,2-7.13,3.11-8.21,2.48a.55.55,0,0,1-.3-.5V83.3a.56.56,0,0,0,.3.5c1.08.62,4.76-.49,8.21-2.49L436,77.24c3.46-2,7.13-3.1,8.22-2.48a.6.6,0,0,1,.31.53Z" style="fill:#f0f0f0"></path><path d="M440.3,79.3l-.11.06-7.34,4.23c-2.8,1.62-4.6,3.32-4.6,4.25V321.53l4.4,2.54h0l11.88,6.85V75.33C444.58,76.21,442.93,77.78,440.3,79.3Z" style="fill:#e0e0e0"></path><path d="M452.34,335.44l-24.1-13.91V87.84a.56.56,0,0,0,.3.5c1.08.61,4.76-.49,8.21-2.49l7.05-4.07c3.46-2,7.13-3.1,8.21-2.48a.58.58,0,0,1,.32.53Z" style="fill:#ED6171"></path><path d="M452.34,335.44l-24.1-13.91V87.84a.56.56,0,0,0,.3.5c1.08.61,4.76-.49,8.21-2.49l7.05-4.07c3.46-2,7.13-3.1,8.21-2.48a.58.58,0,0,1,.32.53Z" style="fill:#fff;opacity:0.6000000000000001"></path><path d="M432.64,87.78c-1.88.68-3.45.92-4.09.56a.56.56,0,0,1-.3-.5V321.53l4.4,2.54Z" style="fill:#fff;opacity:0.30000000000000004"></path><path d="M452,79.3c-1.08-.62-4.75.48-8.21,2.48l-1.57.9V329.61l10.1,5.83V79.83A.58.58,0,0,0,452,79.3Z" style="opacity:0.1"></path><path d="M452.34,87.73a.59.59,0,0,0-.32-.53c-1.08-.62-4.75.49-8.21,2.49l-7.05,4.07c-3.45,2-7.13,3.1-8.21,2.48a.56.56,0,0,1-.3-.5v-7.9a.54.54,0,0,0,.3.49c1.08.63,4.76-.48,8.21-2.48l7.05-4.07c3.46-2,7.13-3.1,8.21-2.48a.57.57,0,0,1,.32.53Z" style="fill:#f0f0f0"></path><path d="M448.15,83.84l-.11,0-7.33,4.24c-2.81,1.61-4.6,3.32-4.6,4.24v233.7l4.4,2.53h0l11.88,6.85V79.86C452.43,80.75,450.79,82.32,448.15,83.84Z" style="fill:#e0e0e0"></path><path d="M460.2,84.37V333.23c-.31.18-.63.35-.94.5l-.37.2c-.31.16-.62.3-.93.44-.6.27-1.18.51-1.74.71s-1,.35-1.49.47a3.89,3.89,0,0,1-2.91-.41h0l-1.72-1L444,330.6l-7.86-4.53V92.37a.55.55,0,0,0,.3.51c1.08.61,4.75-.5,8.2-2.49l5.49-3.17,1.56-.9c3.46-2,7.14-3.1,8.22-2.48A.6.6,0,0,1,460.2,84.37Z" style="fill:#ED6171"></path><path d="M460.2,84.37V333.23c-.31.18-.63.35-.94.5l-.37.2c-.31.16-.62.3-.93.44-.6.27-1.18.51-1.74.71s-1,.35-1.49.47a3.89,3.89,0,0,1-2.91-.41h0l-1.72-1L444,330.6l-7.86-4.53V92.37a.55.55,0,0,0,.3.51c1.08.61,4.75-.5,8.2-2.49l5.49-3.17,1.56-.9c3.46-2,7.14-3.1,8.22-2.48A.6.6,0,0,1,460.2,84.37Z" style="fill:#fff;opacity:0.6000000000000001"></path><path d="M440.5,92.32c-1.88.67-3.45.92-4.09.55a.54.54,0,0,1-.3-.5v233.7l4.4,2.54Z" style="fill:#fff;opacity:0.30000000000000004"></path><path d="M460.2,84.37V333.23c-.31.18-.63.35-.94.5l-.37.2c-.31.16-.62.3-.93.44-.6.27-1.18.51-1.74.71s-1,.35-1.49.47a3.89,3.89,0,0,1-2.91-.41h0l-1.72-1V87.22l1.56-.9c3.46-2,7.14-3.1,8.22-2.48A.6.6,0,0,1,460.2,84.37Z" style="opacity:0.1"></path><path d="M460.2,92.27a.58.58,0,0,0-.32-.53c-1.08-.62-4.76.49-8.21,2.48l-7.05,4.07c-3.46,2-7.13,3.11-8.21,2.49a.56.56,0,0,1-.3-.5V92.37a.56.56,0,0,0,.3.5c1.08.62,4.75-.49,8.21-2.48l7.05-4.07c3.45-2,7.13-3.11,8.21-2.48a.56.56,0,0,1,.32.52Z" style="fill:#f0f0f0"></path><path d="M460.24,84.44V333.2l0,0c-.31.18-.63.35-.94.5l-.37.2c-.31.16-.62.3-.93.44-.6.27-1.18.51-1.74.71s-1,.35-1.49.47a3.89,3.89,0,0,1-2.91-.41h0l-1.72-1L444,330.6V96.91c0-.92,1.79-2.63,4.59-4.25l1.54-.88,5.8-3.35.11-.05c2.36-1.36,3.92-2.76,4.19-3.67A1.36,1.36,0,0,0,460.24,84.44Z" style="fill:#e0e0e0"></path><path d="M468.05,88.91v239.8l-.67.37-1.56.91-5.49,3.17-.09,0,0,0c-.31.18-.63.35-.94.5l-.37.2c-.31.16-.62.3-.93.44-.6.27-1.18.51-1.74.71s-1,.35-1.49.47a3.89,3.89,0,0,1-2.91-.41h0l-1.72-1L444,330.6V96.91a.53.53,0,0,0,.3.5c.82.47,3.2-.08,5.83-1.27.78-.35,1.58-.76,2.37-1.21L458,91.76l1.56-.91c.22-.12.44-.25.68-.37l0,0,.34-.18.49-.25c.53-.26,1.05-.5,1.55-.7l.46-.19.07,0,.77-.27.2-.07.43-.13.63-.18.65-.14a3.18,3.18,0,0,1,1.91.07A.57.57,0,0,1,468.05,88.91Z" style="fill:#ED6171"></path><path d="M468.05,88.91v239.8l-.67.37-1.56.91-5.49,3.17-.09,0,0,0c-.31.18-.63.35-.94.5l-.37.2c-.31.16-.62.3-.93.44-.6.27-1.18.51-1.74.71s-1,.35-1.49.47a3.89,3.89,0,0,1-2.91-.41h0l-1.72-1L444,330.6V96.91a.53.53,0,0,0,.3.5c.82.47,3.2-.08,5.83-1.27.78-.35,1.58-.76,2.37-1.21L458,91.76l1.56-.91c.22-.12.44-.25.68-.37l0,0,.34-.18.49-.25c.53-.26,1.05-.5,1.55-.7l.46-.19.07,0,.77-.27.2-.07.43-.13.63-.18.65-.14a3.18,3.18,0,0,1,1.91.07A.57.57,0,0,1,468.05,88.91Z" style="fill:#fff;opacity:0.6000000000000001"></path><path d="M448.36,96.85c-1.89.68-3.45.93-4.09.56a.55.55,0,0,1-.3-.5V330.6l4.4,2.54Z" style="fill:#fff;opacity:0.30000000000000004"></path><path d="M468.05,88.91v239.8l-.67.37-1.56.91-5.49,3.17-.09,0,0,0c-.31.18-.63.35-.94.5l-.37.2c-.31.16-.62.3-.93.44V91.76l1.56-.91c.22-.12.44-.25.68-.37l0,0,.34-.18.49-.25c.53-.26,1.05-.5,1.55-.7l.46-.19.07,0,.77-.27.2-.07.43-.13.63-.18.65-.14a3.18,3.18,0,0,1,1.91.07A.57.57,0,0,1,468.05,88.91Z" style="opacity:0.1"></path><path d="M468.06,96.8a.58.58,0,0,0-.32-.52c-1.08-.63-4.76.49-8.21,2.48l-7,4.07c-3.46,2-7.13,3.11-8.21,2.48a.52.52,0,0,1-.3-.5v-7.9a.54.54,0,0,0,.3.5c1.08.62,4.75-.49,8.21-2.48l7-4.07c3.45-2,7.13-3.11,8.21-2.49a.61.61,0,0,1,.32.53Z" style="fill:#f0f0f0"></path><path d="M468.09,89V328.69l-.71.39-1.56.91-5.49,3.17-.09,0,0,0c-.31.18-.63.35-.94.5l-.37.2c-.31.16-.62.3-.93.44-.6.27-1.18.51-1.74.71s-1,.35-1.49.47a3.89,3.89,0,0,1-2.91-.41h0V101.45c0-.93,1.79-2.63,4.59-4.25l1.54-.89L460.2,95l0,0,3.52-2,.1-.06c2.37-1.36,3.95-2.77,4.19-3.68A.77.77,0,0,0,468.09,89Z" style="fill:#e0e0e0"></path><path d="M475.91,93.44V327.13a.57.57,0,0,0-.31-.52c-1-.59-4.27.33-7.51,2.08l-.71.39-1.56.91-5.49,3.17-.09,0,0,0c-.31.18-.63.35-.94.5l-.37.2c-.31.16-.62.3-.93.44-.6.27-1.18.51-1.74.71s-1,.35-1.49.47a3.89,3.89,0,0,1-2.91-.41h0V101.45a.55.55,0,0,0,.29.5,1.24,1.24,0,0,0,.37.12,2.56,2.56,0,0,0,.8,0,1.5,1.5,0,0,0,.35,0,6.87,6.87,0,0,0,1.13-.23c.31-.08.63-.16,1-.28l.33-.11.15,0c.56-.2,1.14-.44,1.74-.71s1.49-.72,2.24-1.14l0,0,.09-.05,5.49-3.17,1.56-.9.67-.38c3.28-1.76,6.54-2.68,7.55-2.1A.59.59,0,0,1,475.91,93.44Z" style="fill:#ED6171"></path><path d="M475.91,93.44V327.13a.57.57,0,0,0-.31-.52c-1-.59-4.27.33-7.51,2.08l-.71.39-1.56.91-5.49,3.17-.09,0,0,0c-.31.18-.63.35-.94.5l-.37.2c-.31.16-.62.3-.93.44-.6.27-1.18.51-1.74.71s-1,.35-1.49.47a3.89,3.89,0,0,1-2.91-.41h0V101.45a.55.55,0,0,0,.29.5,1.24,1.24,0,0,0,.37.12,2.56,2.56,0,0,0,.8,0,1.5,1.5,0,0,0,.35,0,6.87,6.87,0,0,0,1.13-.23c.31-.08.63-.16,1-.28l.33-.11.15,0c.56-.2,1.14-.44,1.74-.71s1.49-.72,2.24-1.14l0,0,.09-.05,5.49-3.17,1.56-.9.67-.38c3.28-1.76,6.54-2.68,7.55-2.1A.59.59,0,0,1,475.91,93.44Z" style="fill:#fff;opacity:0.6000000000000001"></path><path d="M456.22,101.39V335.08c-.53.19-1,.35-1.49.47a3.89,3.89,0,0,1-2.91-.41h0V101.45a.55.55,0,0,0,.29.5,1.24,1.24,0,0,0,.37.12,2.56,2.56,0,0,0,.8,0l.35,0a8.1,8.1,0,0,0,1.13-.23c.31-.08.63-.16,1-.28l.33-.11Z" style="fill:#fff;opacity:0.30000000000000004"></path><path d="M475.91,93.44V327.13a.57.57,0,0,0-.31-.52c-1-.59-4.27.33-7.51,2.08l0,0-.67.37-1.56.91V96.29l1.56-.9.67-.38,0,0c3.24-1.74,6.5-2.66,7.51-2.08A.59.59,0,0,1,475.91,93.44Z" style="fill:#ED6171;opacity:0.2"></path><path d="M475.92,101.34a.63.63,0,0,0-.32-.53c-1.08-.62-4.76.49-8.22,2.49l-7,4.07c-3.46,2-7.14,3.1-8.22,2.48a.56.56,0,0,1-.3-.5v-7.9a.54.54,0,0,0,.3.49c1.08.63,4.76-.48,8.22-2.48l7-4.07c3.46-2,7.14-3.1,8.22-2.48a.6.6,0,0,1,.32.53Z" style="fill:#f0f0f0"></path><path d="M373.47,34.4a3,3,0,0,0-3.08.3A9.68,9.68,0,0,0,366,42.29a3.09,3.09,0,0,0,1.25,2.81l1.47.84a3.07,3.07,0,0,0,3.07-.31A9.7,9.7,0,0,0,376.18,38a3.05,3.05,0,0,0-1.32-2.85C374.49,35,373.85,34.61,373.47,34.4Z" style="fill:#e0e0e0"></path><path d="M367.42,43.1a9.7,9.7,0,0,1,4.38-7.59c2.42-1.4,4.38-.26,4.38,2.53a9.7,9.7,0,0,1-4.38,7.59C369.38,47,367.42,45.89,367.42,43.1Z" style="fill:#f0f0f0"></path><path d="M481.41,101.8,373.08,39.11a1,1,0,0,0-1,.09,3,3,0,0,0-1.35,2.33.94.94,0,0,0,.41.88l108.33,62.68a1,1,0,0,0,1-.09,3,3,0,0,0,1.34-2.33A.92.92,0,0,0,481.41,101.8Z" style="fill:#f0f0f0"></path><path d="M371.18,42.41l108.33,62.68a1,1,0,0,0,1-.09,2.66,2.66,0,0,0,.69-.62L371,40.63a2.48,2.48,0,0,0-.2.9A.94.94,0,0,0,371.18,42.41Z" style="fill:#e0e0e0"></path><path d="M483.12,97.83a3.05,3.05,0,0,0-3.09.3,9.68,9.68,0,0,0-4.38,7.59,3.07,3.07,0,0,0,1.26,2.81l1.46.84a3.07,3.07,0,0,0,3.07-.31,9.71,9.71,0,0,0,4.39-7.59,3,3,0,0,0-1.33-2.85Z" style="fill:#e0e0e0"></path><path d="M477.06,106.53a9.7,9.7,0,0,1,4.38-7.59c2.42-1.4,4.39-.26,4.39,2.53a9.71,9.71,0,0,1-4.39,7.59C479,110.46,477.06,109.32,477.06,106.53Z" style="fill:#f0f0f0"></path><path d="M411.92,69.93c.4-.22.72,0,.72.42a1.59,1.59,0,0,1-.72,1.24c-.39.23-.71,0-.71-.42A1.6,1.6,0,0,1,411.92,69.93Z" style="fill:#e0e0e0"></path><path d="M411.92,69.93c.4-.22.72,0,.72.42a1.59,1.59,0,0,1-.72,1.24c-.39.23-.71,0-.71-.42A1.6,1.6,0,0,1,411.92,69.93Z" style="opacity:0.1"></path><path d="M415.81,63.89l-.53-.31a2,2,0,0,0-.88-1.4,2,2,0,0,0-1.66-.06,3.5,3.5,0,0,0-.69.32,7,7,0,0,0-2.33,2.34,7.37,7.37,0,0,0-1.22,3.79,2,2,0,0,0,3.3,1.91,5.3,5.3,0,0,0,.73-.51.73.73,0,0,1,.09.54,5.13,5.13,0,0,1-.57.38,3.57,3.57,0,0,1-1.77.54,2.19,2.19,0,0,1-1.07-.28A2.79,2.79,0,0,1,408,68.57a7.8,7.8,0,0,1,1.3-4A7.39,7.39,0,0,1,411.8,62a4.11,4.11,0,0,1,.42-.21,2.62,2.62,0,0,1,2.42-.05A2.59,2.59,0,0,1,415.81,63.89Z" style="fill:#fafafa"></path><path d="M415.84,72.19c.39-.23.71,0,.71.41a1.59,1.59,0,0,1-.71,1.24c-.4.23-.72,0-.72-.41A1.57,1.57,0,0,1,415.84,72.19Z" style="fill:#e0e0e0"></path><path d="M419.72,66.14l-.52-.29a1.78,1.78,0,0,0-2.55-1.48,3.84,3.84,0,0,0-.69.32A7,7,0,0,0,413.63,67a7.37,7.37,0,0,0-1.22,3.79,2.38,2.38,0,0,0,1,2.17,2.34,2.34,0,0,0,2.35-.26,6.76,6.76,0,0,0,.73-.5.7.7,0,0,1,.09.53c-.19.14-.38.27-.58.39a3.65,3.65,0,0,1-1.76.53,2.22,2.22,0,0,1-1.08-.27,2.81,2.81,0,0,1-1.19-2.59,7.77,7.77,0,0,1,1.3-4,7.33,7.33,0,0,1,2.49-2.52,2.27,2.27,0,0,1,.41-.21,2.34,2.34,0,0,1,3.59,2.07Z" style="fill:#fafafa"></path><path d="M419.75,74.44c.4-.23.72,0,.72.42a1.59,1.59,0,0,1-.72,1.24c-.4.22-.72,0-.72-.42A1.59,1.59,0,0,1,419.75,74.44Z" style="fill:#e0e0e0"></path><path d="M419.75,74.44c.4-.23.72,0,.72.42a1.59,1.59,0,0,1-.72,1.24c-.4.22-.72,0-.72-.42A1.59,1.59,0,0,1,419.75,74.44Z" style="opacity:0.1"></path><path d="M423.11,68.12h0a2,2,0,0,0-.89-1.43,2,2,0,0,0-1.67-.05,3.7,3.7,0,0,0-.68.31,7.11,7.11,0,0,0-2.32,2.34,7.44,7.44,0,0,0-1.22,3.8,2,2,0,0,0,3.3,1.9,4.3,4.3,0,0,0,.73-.5.7.7,0,0,1,.09.53,4.21,4.21,0,0,1-.58.39,3.51,3.51,0,0,1-1.76.54,2.19,2.19,0,0,1-1.07-.28,2.79,2.79,0,0,1-1.19-2.58,7.88,7.88,0,0,1,1.29-4,7.42,7.42,0,0,1,2.49-2.52,2.14,2.14,0,0,1,.4-.2,2.56,2.56,0,0,1,2.43-.06,2.6,2.6,0,0,1,1.17,2.14Z" style="fill:#fafafa"></path><path d="M423.66,76.7c.4-.23.72,0,.72.41a1.57,1.57,0,0,1-.72,1.24c-.39.23-.71,0-.71-.41A1.59,1.59,0,0,1,423.66,76.7Z" style="fill:#e0e0e0"></path><path d="M427,70.38h0a2,2,0,0,0-.89-1.42,2,2,0,0,0-1.68-.06,3.07,3.07,0,0,0-.67.31,7.13,7.13,0,0,0-2.33,2.34,7.37,7.37,0,0,0-1.22,3.79,2,2,0,0,0,3.3,1.91,5.23,5.23,0,0,0,.73-.5.7.7,0,0,1,.09.53,4,4,0,0,1-.57.38,3.57,3.57,0,0,1-1.77.54,2.09,2.09,0,0,1-1.07-.28,2.79,2.79,0,0,1-1.19-2.58,7.85,7.85,0,0,1,1.29-4,7.63,7.63,0,0,1,2.49-2.53,3.62,3.62,0,0,1,.4-.19,2.61,2.61,0,0,1,2.44-.07,2.66,2.66,0,0,1,1.17,2.16Z" style="fill:#fafafa"></path><path d="M427.58,79c.39-.23.71,0,.71.42a1.6,1.6,0,0,1-.71,1.24c-.4.22-.72,0-.72-.42A1.59,1.59,0,0,1,427.58,79Z" style="fill:#e0e0e0"></path><path d="M427.58,79c.39-.23.71,0,.71.42a1.6,1.6,0,0,1-.71,1.24c-.4.22-.72,0-.72-.42A1.59,1.59,0,0,1,427.58,79Z" style="opacity:0.1"></path><path d="M430.94,72.63h0a2,2,0,0,0-.89-1.43,2,2,0,0,0-1.68-.06,4.42,4.42,0,0,0-.67.31,7.17,7.17,0,0,0-2.33,2.35,7.35,7.35,0,0,0-1.22,3.79,2.35,2.35,0,0,0,1,2.16,2.32,2.32,0,0,0,2.34-.26,5.06,5.06,0,0,0,.74-.5.71.71,0,0,1,.09.53,5.45,5.45,0,0,1-.58.4,3.76,3.76,0,0,1-1.76.53,2.12,2.12,0,0,1-1.08-.28,2.8,2.8,0,0,1-1.19-2.58,7.88,7.88,0,0,1,1.29-4A7.6,7.6,0,0,1,427.45,71a2.89,2.89,0,0,1,.39-.2,2.6,2.6,0,0,1,2.45-.06,2.63,2.63,0,0,1,1.17,2.15Z" style="fill:#fafafa"></path><path d="M431.49,81.21c.4-.23.72,0,.72.41a1.57,1.57,0,0,1-.72,1.24.44.44,0,0,1-.72-.41A1.58,1.58,0,0,1,431.49,81.21Z" style="fill:#e0e0e0"></path><path d="M434.85,74.89h0a2,2,0,0,0-.89-1.43,1.91,1.91,0,0,0-1.68,0,3.55,3.55,0,0,0-.67.3,7,7,0,0,0-2.32,2.35,7.37,7.37,0,0,0-1.22,3.79,2,2,0,0,0,3.3,1.91,5,5,0,0,0,.73-.51.71.71,0,0,1,.09.53,5.45,5.45,0,0,1-.58.4,3.49,3.49,0,0,1-1.76.53,2.09,2.09,0,0,1-1.07-.28,2.79,2.79,0,0,1-1.19-2.58,7.88,7.88,0,0,1,1.29-4,7.36,7.36,0,0,1,2.49-2.53,2.25,2.25,0,0,1,.38-.19A2.57,2.57,0,0,1,434.2,73a2.65,2.65,0,0,1,1.17,2.16Z" style="fill:#fafafa"></path><path d="M435.4,83.46c.4-.23.72,0,.72.41a1.56,1.56,0,0,1-.72,1.24c-.39.23-.71,0-.71-.41A1.59,1.59,0,0,1,435.4,83.46Z" style="fill:#e0e0e0"></path><path d="M435.4,83.46c.4-.23.72,0,.72.41a1.56,1.56,0,0,1-.72,1.24c-.39.23-.71,0-.71-.41A1.59,1.59,0,0,1,435.4,83.46Z" style="opacity:0.1"></path><path d="M439.29,77.45l-.52-.3a2,2,0,0,0-.89-1.44,2,2,0,0,0-1.7,0,3.4,3.4,0,0,0-.65.3,6.93,6.93,0,0,0-2.33,2.36A7.31,7.31,0,0,0,432,82.1a2,2,0,0,0,3.3,1.9,4.49,4.49,0,0,0,.73-.5.7.7,0,0,1,.09.53,5.23,5.23,0,0,1-.57.39,3.55,3.55,0,0,1-1.77.53,2,2,0,0,1-1.07-.28,2.77,2.77,0,0,1-1.19-2.57,7.85,7.85,0,0,1,1.29-4,7.39,7.39,0,0,1,2.49-2.54l.38-.19a2.35,2.35,0,0,1,3.63,2.1Z" style="fill:#fafafa"></path><path d="M439.32,85.72c.39-.23.71,0,.71.41a1.59,1.59,0,0,1-.71,1.24c-.4.23-.72,0-.72-.41A1.56,1.56,0,0,1,439.32,85.72Z" style="fill:#e0e0e0"></path><path d="M443.2,79.7l-.52-.29a2,2,0,0,0-.89-1.45,1.92,1.92,0,0,0-1.68,0,4.33,4.33,0,0,0-.67.3,6.89,6.89,0,0,0-2.33,2.35,7.35,7.35,0,0,0-1.22,3.79,2,2,0,0,0,3.3,1.9,5.14,5.14,0,0,0,.74-.51.72.72,0,0,1,.09.53,5.45,5.45,0,0,1-.58.4,3.65,3.65,0,0,1-1.76.53,2.12,2.12,0,0,1-1.08-.28,2.8,2.8,0,0,1-1.19-2.57,7.88,7.88,0,0,1,1.29-4,7.57,7.57,0,0,1,2.49-2.54,2.69,2.69,0,0,1,.38-.19,2.35,2.35,0,0,1,3.63,2.09Z" style="fill:#fafafa"></path><path d="M443.23,88c.4-.23.72,0,.72.41a1.56,1.56,0,0,1-.72,1.24c-.39.23-.72,0-.72-.41A1.6,1.6,0,0,1,443.23,88Z" style="fill:#e0e0e0"></path><path d="M443.23,88c.4-.23.72,0,.72.41a1.56,1.56,0,0,1-.72,1.24c-.39.23-.72,0-.72-.41A1.6,1.6,0,0,1,443.23,88Z" style="opacity:0.1"></path><path d="M447.11,82l-.52-.3a2,2,0,0,0-.89-1.45,1.89,1.89,0,0,0-1.68,0,3.41,3.41,0,0,0-.66.29A7.13,7.13,0,0,0,441,82.83a7.45,7.45,0,0,0-1.21,3.78,2,2,0,0,0,3.3,1.91,6,6,0,0,0,.73-.51.7.7,0,0,1,.09.53q-.29.21-.57.39a3.55,3.55,0,0,1-1.77.53,2.18,2.18,0,0,1-1.07-.27,2.81,2.81,0,0,1-1.19-2.58,7.89,7.89,0,0,1,1.28-4,7.6,7.6,0,0,1,2.5-2.54l.37-.18a2.59,2.59,0,0,1,2.46-.07A2.63,2.63,0,0,1,447.11,82Z" style="fill:#fafafa"></path><path d="M447.14,90.22c.4-.22.72,0,.72.42a1.59,1.59,0,0,1-.72,1.24c-.39.23-.71,0-.71-.42A1.6,1.6,0,0,1,447.14,90.22Z" style="fill:#e0e0e0"></path><path d="M451,84.22l-.52-.3a2,2,0,0,0-.89-1.45,1.94,1.94,0,0,0-1.69,0,3.48,3.48,0,0,0-.66.3,7.13,7.13,0,0,0-2.34,2.36,7.39,7.39,0,0,0-1.21,3.77,2,2,0,0,0,3.3,1.91,4.56,4.56,0,0,0,.73-.51.73.73,0,0,1,.09.54,5.13,5.13,0,0,1-.57.38,3.57,3.57,0,0,1-1.77.54,2.09,2.09,0,0,1-1.07-.28,2.79,2.79,0,0,1-1.19-2.58,7.83,7.83,0,0,1,1.28-4A7.63,7.63,0,0,1,447,82.3l.37-.18a2.35,2.35,0,0,1,3.64,2.1Z" style="fill:#fafafa"></path><path d="M451.06,92.48c.39-.23.71,0,.71.41a1.59,1.59,0,0,1-.71,1.24c-.4.23-.72.05-.72-.41A1.57,1.57,0,0,1,451.06,92.48Z" style="fill:#e0e0e0"></path><path d="M451.06,92.48c.39-.23.71,0,.71.41a1.59,1.59,0,0,1-.71,1.24c-.4.23-.72.05-.72-.41A1.57,1.57,0,0,1,451.06,92.48Z" style="opacity:0.1"></path><path d="M454.94,86.47l-.52-.29a2,2,0,0,0-.89-1.46,1.94,1.94,0,0,0-1.69,0,4.7,4.7,0,0,0-.66.3,7,7,0,0,0-2.33,2.36,7.34,7.34,0,0,0-1.22,3.78,2,2,0,0,0,3.3,1.9,4.44,4.44,0,0,0,.74-.51.74.74,0,0,1,.09.54,5.35,5.35,0,0,1-.58.39,3.67,3.67,0,0,1-1.76.54,2.23,2.23,0,0,1-1.08-.28,2.81,2.81,0,0,1-1.19-2.58,8,8,0,0,1,1.28-4,7.79,7.79,0,0,1,2.5-2.54c.13-.07.25-.14.37-.19a2.36,2.36,0,0,1,3.64,2.1Z" style="fill:#fafafa"></path><path d="M455,94.73c.4-.23.72,0,.72.42a1.59,1.59,0,0,1-.72,1.24c-.39.22-.72,0-.72-.42A1.61,1.61,0,0,1,455,94.73Z" style="fill:#e0e0e0"></path><path d="M458.85,88.73l-.52-.3a2,2,0,0,0-.89-1.45,1.94,1.94,0,0,0-1.69,0,2.88,2.88,0,0,0-.65.3,6.92,6.92,0,0,0-2.34,2.35,7.45,7.45,0,0,0-1.21,3.78,2,2,0,0,0,3.3,1.91,6,6,0,0,0,.73-.51.73.73,0,0,1,.09.54,6.27,6.27,0,0,1-.57.38,3.57,3.57,0,0,1-1.77.54,2.19,2.19,0,0,1-1.07-.28,2.79,2.79,0,0,1-1.19-2.58,7.86,7.86,0,0,1,1.28-4,7.6,7.6,0,0,1,2.5-2.54l.37-.18a2.57,2.57,0,0,1,2.46-.08A2.63,2.63,0,0,1,458.85,88.73Z" style="fill:#fafafa"></path><path d="M458.88,97c.4-.23.72,0,.72.41a1.57,1.57,0,0,1-.72,1.24c-.39.23-.71,0-.71-.41A1.59,1.59,0,0,1,458.88,97Z" style="fill:#e0e0e0"></path><path d="M458.88,97c.4-.23.72,0,.72.41a1.57,1.57,0,0,1-.72,1.24c-.39.23-.71,0-.71-.41A1.59,1.59,0,0,1,458.88,97Z" style="opacity:0.1"></path><path d="M462.77,91l-.52-.31a2,2,0,0,0-.89-1.46,2,2,0,0,0-1.71,0,2.77,2.77,0,0,0-.64.29,6.9,6.9,0,0,0-2.34,2.37,7.26,7.26,0,0,0-1.21,3.76,2.36,2.36,0,0,0,1,2.17,2.32,2.32,0,0,0,2.34-.26,4.56,4.56,0,0,0,.73-.51.73.73,0,0,1,.1.54,6.39,6.39,0,0,1-.58.38,3.57,3.57,0,0,1-1.77.54,2.09,2.09,0,0,1-1.07-.28A2.78,2.78,0,0,1,455,95.62a7.79,7.79,0,0,1,1.28-4,7.63,7.63,0,0,1,2.5-2.55l.37-.18A2.35,2.35,0,0,1,462.77,91Z" style="fill:#fafafa"></path><path d="M462.8,99.24c.39-.23.71,0,.71.42a1.6,1.6,0,0,1-.71,1.24c-.4.22-.72,0-.72-.42A1.59,1.59,0,0,1,462.8,99.24Z" style="fill:#e0e0e0"></path><path d="M466.68,93.25l-.52-.29a1.77,1.77,0,0,0-2.6-1.51,3.26,3.26,0,0,0-.64.29,6.9,6.9,0,0,0-2.34,2.37,7.29,7.29,0,0,0-1.21,3.77,2,2,0,0,0,3.31,1.9,5.57,5.57,0,0,0,.73-.5.7.7,0,0,1,.09.53,5.35,5.35,0,0,1-.58.39,3.67,3.67,0,0,1-1.76.54,2.23,2.23,0,0,1-1.08-.28,2.79,2.79,0,0,1-1.19-2.58,7.79,7.79,0,0,1,1.28-4,7.57,7.57,0,0,1,2.51-2.55,1.94,1.94,0,0,1,.35-.18,2.35,2.35,0,0,1,3.65,2.1Z" style="fill:#fafafa"></path></g></g><g id="freepik--Device--inject-80"><g id="freepik--Ultrasound--inject-80"><path d="M401.1,375.4a10.62,10.62,0,0,1,4.74-8.35,3.29,3.29,0,0,1,3.52-.27h0l3.25,1.83-6.81,11.75-3.22-1.83h0A3.33,3.33,0,0,1,401.1,375.4Z" style="fill:#37474f"></path><path d="M409.22,369a10.62,10.62,0,0,0-4.75,8.35c0,3.06,2.18,4.29,4.82,2.74a10.63,10.63,0,0,0,4.75-8.35C414,368.65,411.86,367.42,409.22,369Z" style="fill:#455a64"></path><path d="M410.87,373.57c0-1.2-.74-1.75-1.63-1.22a3.89,3.89,0,0,0-1.61,3.11c0,1.2.74,1.75,1.64,1.22A3.89,3.89,0,0,0,410.87,373.57Z" style="fill:#263238"></path><path d="M434.31,356.25a10.62,10.62,0,0,1,4.73-8.36,3.28,3.28,0,0,1,3.51-.27h0l3.26,1.82L439,361.2l-3.23-1.82h0A3.32,3.32,0,0,1,434.31,356.25Z" style="fill:#37474f"></path><path d="M442.42,349.8a10.62,10.62,0,0,0-4.73,8.36c0,3.06,2.18,4.28,4.82,2.73a10.58,10.58,0,0,0,4.73-8.35C447.22,349.47,445.06,348.25,442.42,349.8Z" style="fill:#455a64"></path><path d="M444.08,354.4c0-1.2-.74-1.75-1.63-1.22a3.88,3.88,0,0,0-1.6,3.12c0,1.2.74,1.74,1.63,1.21A3.89,3.89,0,0,0,444.08,354.4Z" style="fill:#263238"></path><path d="M350.9,345.35a1.09,1.09,0,0,1,.65-.91l47-27.21a3.44,3.44,0,0,1,3.14,0l45.17,26a1.08,1.08,0,0,1,.64.91V347a1.07,1.07,0,0,1-.65.91l-47,27.2a3.47,3.47,0,0,1-3.14,0l-45.17-26a1.09,1.09,0,0,1-.65-.91C350.89,347.92,350.9,345.67,350.9,345.35Z" style="fill:#ED6171"></path><path d="M399.86,372.22l47-27.14a1,1,0,0,0,0-1.81l-45.17-26a3.44,3.44,0,0,0-3.14,0l-47,27.21a1,1,0,0,0,0,1.81l45.17,26A3.47,3.47,0,0,0,399.86,372.22Z" style="fill:#ED6171"></path><path d="M399.86,372.22l47-27.14a1,1,0,0,0,0-1.81l-45.17-26a3.44,3.44,0,0,0-3.14,0l-47,27.21a1,1,0,0,0,0,1.81l45.17,26A3.47,3.47,0,0,0,399.86,372.22Z" style="fill:#fff;opacity:0.6000000000000001"></path><path d="M398.39,372.59v2.89a3.2,3.2,0,0,0,1.47-.37l47-27.2a1.11,1.11,0,0,0,.65-.9v-2.84a1.11,1.11,0,0,1-.65.91l-47,27.14A3.2,3.2,0,0,1,398.39,372.59Z" style="fill:#ED6171"></path><path d="M398.39,372.59v2.89a3.2,3.2,0,0,0,1.47-.37l47-27.2a1.11,1.11,0,0,0,.65-.9v-2.84a1.11,1.11,0,0,1-.65.91l-47,27.14A3.2,3.2,0,0,1,398.39,372.59Z" style="fill:#fff;opacity:0.25"></path><path d="M372,249a1.1,1.1,0,0,1,.65-.9L399,232.92a3.47,3.47,0,0,1,3.14,0L445.65,258a1.11,1.11,0,0,1,.65.9v84.61a1.11,1.11,0,0,1-.65.91l-26.32,15.2a3.5,3.5,0,0,1-3.15,0l-43.49-25a1.11,1.11,0,0,1-.65-.91Z" style="fill:#e0e0e0"></path><path d="M419.33,274.91l26.32-15.13a1,1,0,0,0,0-1.81l-43.48-25.05a3.47,3.47,0,0,0-3.14,0l-26.34,15.21a1,1,0,0,0,0,1.81l43.49,25A3.49,3.49,0,0,0,419.33,274.91Z" style="fill:#f0f0f0"></path><path d="M417.85,275.28V360a3.2,3.2,0,0,0,1.48-.36l26.31-15.2a1.11,1.11,0,0,0,.66-.91V258.87a1.13,1.13,0,0,1-.66.91l-26.31,15.14A3.2,3.2,0,0,1,417.85,275.28Z" style="fill:#ebebeb"></path><path d="M372.31,234.06a1.1,1.1,0,0,1,.65-.91L399.29,218a3.49,3.49,0,0,1,3.15,0L429,233.29a1.11,1.11,0,0,1,.65.91v21.64a1.11,1.11,0,0,1-.66.91L402.64,272a3.47,3.47,0,0,1-3.14,0L373,256.69a1.11,1.11,0,0,1-.65-.91Z" style="fill:#ED6171"></path><path d="M372.31,234.06a1.1,1.1,0,0,1,.65-.91L399.29,218a3.49,3.49,0,0,1,3.15,0L429,233.29a1.11,1.11,0,0,1,.65.91v21.64a1.11,1.11,0,0,1-.66.91L402.64,272a3.47,3.47,0,0,1-3.14,0L373,256.69a1.11,1.11,0,0,1-.65-.91Z" style="opacity:0.30000000000000004"></path><path d="M402.64,250.23,429,235.1a1,1,0,0,0,0-1.81L402.44,218a3.5,3.5,0,0,0-3.15,0L373,233.15a1,1,0,0,0,0,1.82l26.54,15.26A3.47,3.47,0,0,0,402.64,250.23Z" style="fill:#ED6171"></path><path d="M401.17,250.61v21.71a3.37,3.37,0,0,0,1.48-.37L429,256.75a1.09,1.09,0,0,0,.65-.91V234.19a1.1,1.1,0,0,1-.65.91l-26.31,15.14A3.24,3.24,0,0,1,401.17,250.61Z" style="fill:#ED6171"></path><path d="M401.17,250.61v21.71a3.37,3.37,0,0,0,1.48-.37L429,256.75a1.09,1.09,0,0,0,.65-.91V234.19a1.1,1.1,0,0,1-.65.91l-26.31,15.14A3.24,3.24,0,0,1,401.17,250.61Z" style="opacity:0.2"></path><path d="M369.27,223.17a1.11,1.11,0,0,1,.65-.9l26.34-15.21a3.47,3.47,0,0,1,3.14,0L438,229.35a1.11,1.11,0,0,1,.65.9v5.86a1.11,1.11,0,0,1-.66.91l-26.32,15.2a3.47,3.47,0,0,1-3.14,0L369.92,230a1.11,1.11,0,0,1-.65-.91Z" style="fill:#ED6171"></path><path d="M411.68,246.29,438,231.16a1,1,0,0,0,0-1.81L399.4,207.06a3.47,3.47,0,0,0-3.14,0l-26.34,15.21a1,1,0,0,0,0,1.81l38.62,22.21A3.47,3.47,0,0,0,411.68,246.29Z" style="fill:#ED6171"></path><path d="M411.68,246.29,438,231.16a1,1,0,0,0,0-1.81L399.4,207.06a3.47,3.47,0,0,0-3.14,0l-26.34,15.21a1,1,0,0,0,0,1.81l38.62,22.21A3.47,3.47,0,0,0,411.68,246.29Z" style="fill:#fff;opacity:0.6000000000000001"></path><path d="M410.21,246.67v5.91a3.27,3.27,0,0,0,1.48-.36L438,237a1.11,1.11,0,0,0,.65-.91v-5.86a1.12,1.12,0,0,1-.65.91L411.69,246.3A3.41,3.41,0,0,1,410.21,246.67Z" style="fill:#ED6171"></path><path d="M410.21,246.67v5.91a3.27,3.27,0,0,0,1.48-.36L438,237a1.11,1.11,0,0,0,.65-.91v-5.86a1.12,1.12,0,0,1-.65.91L411.69,246.3A3.41,3.41,0,0,1,410.21,246.67Z" style="fill:#fff;opacity:0.25"></path><path d="M404.51,202.5h0a1.73,1.73,0,0,0-1-1.45,5.55,5.55,0,0,0-5,0,1.75,1.75,0,0,0-1,1.45h0v26.35h0a1.78,1.78,0,0,0,1,1.43,5.55,5.55,0,0,0,5,0,1.78,1.78,0,0,0,1-1.43h0Z" style="fill:#e0e0e0"></path><path d="M398.45,201.05c-1.38.8-1.38,2.1,0,2.9a5.55,5.55,0,0,0,5,0c1.38-.8,1.38-2.1,0-2.9A5.55,5.55,0,0,0,398.45,201.05Z" style="fill:#f5f5f5"></path><path d="M441.68,239.55c1.06-.61,1-1.65,1-3v-58.9a4.56,4.56,0,0,0-2.06-3.57l-75.21-43.42a3.54,3.54,0,0,0-3.75.1,3,3,0,0,0-1.25,2.79v58.91a4.53,4.53,0,0,0,2.06,3.56l75.21,43.43A4.41,4.41,0,0,0,441.68,239.55Z" style="fill:#ebebeb"></path><path d="M360.41,133.58c0-1.31.92-1.84,2.06-1.19l75.21,43.43a4.17,4.17,0,0,1,1.46,1.54l2.94-1.71h0a4.17,4.17,0,0,0-1.46-1.54l-75.21-43.42a3.54,3.54,0,0,0-3.75.1A3,3,0,0,0,360.41,133.58Z" style="fill:#f0f0f0"></path><path d="M437.93,239.6a4.37,4.37,0,0,0,3.74,0c1.07-.61,1-1.65,1-3v-58.9a4.21,4.21,0,0,0-.6-2l-2.94,1.7h0a4.2,4.2,0,0,1,.6,2v58.91C439.74,239.51,439,240.05,437.93,239.6Z" style="fill:#e0e0e0"></path><path d="M436.58,178.19,364.2,136.42c-.69-.4-1.24-.08-1.24.71v54.78a2.71,2.71,0,0,0,1.24,2.14l72.38,41.78c.68.39,1.23.07,1.23-.72V180.34A2.76,2.76,0,0,0,436.58,178.19Z"></path><path d="M436.58,178.19a2.76,2.76,0,0,1,1.23,2.15v53.82l-71.55-41.3a2.73,2.73,0,0,1-1.24-2.14V136.89Z" style="fill:#37474f"></path><path d="M401.32,160.53c-23.4-13.51-35,1.19-35,1.19l30.74,47.36,8.49,4.9,30.75-11.85S424.71,174,401.32,160.53Z" style="fill:#455a64"></path><path d="M406.25,179.52c-3.22-4.37-3.32-7.2-6.37-12s-11.46-12.65-15.88-4.62c-4,7.18,1.56,19,3.31,22.49s7,12.37,12.44,16.84c9.55,7.82,15.53,6.41,17.68.32,1.07-3,1.42-7.79-1.84-13.07C413.56,186.24,409.46,183.88,406.25,179.52Z" style="fill:#37474f"></path><g id="freepik--Fetus--inject-80"><path d="M401.08,178.62c.5-.37,1.22.38,2.07,2.57a23.46,23.46,0,0,1,1,6.11l1.82,2.46a7.15,7.15,0,0,1,.32-2.56c.39-.71,1.42-.68,2.34.4s1.84,2.34,2,2.25-.21-1.36.25-1.3,1.66,2,1.66,3.85-2.66,4.32-6.23,1.71-5.57-6.65-5.51-8.66S401.08,178.62,401.08,178.62Z" style="fill:#263238"></path><path d="M396,167.34a19.86,19.86,0,0,1,2.86,8c.08.67.16,1.34.18,2,0,.49.08,1,.06,1.48a7.52,7.52,0,0,1-.41,2.27,4.72,4.72,0,0,0-.34,1.08c0,.61.53,1.56,1,1.35s.5-.74.64-1.17a10.68,10.68,0,0,0,.4-3.56c0-.49-.32-1.88.53-1.22a6.92,6.92,0,0,1,1.56,3.4,15.16,15.16,0,0,1,.35,5.17c1.24.46,2.95,2.54,3.86,3.87.32-1.3.52-2.55,1.94-1.34,1,.82,2.37,2.88,3.22,2.48.37-.17.63-.77,1.22-.33s.72,1.18.73,2.61c0,2.95-2.27,1.08-2.61,2.66-.42,1.92.25,4.42-1,5.7-2.24,2.27-5.12.52-8.25-1.68a31.27,31.27,0,0,1-6.6-6.65,22.86,22.86,0,0,1-3.4-6.5,40.1,40.1,0,0,0-1.82-4.94c-2.63-5.05-5.16-10-3.74-14.58.79-1.91,2.13-3.53,3.87-3.75S394.27,164.62,396,167.34Z" style="fill:#455a64"></path><path d="M404.62,189.16a4.16,4.16,0,0,0,0-1.86,5.88,5.88,0,0,1-.19-1.81c.19-1.3,1.17-.91,1.9-1.32a.63.63,0,0,0,.32-.6,4.81,4.81,0,0,0-.49-1.48c-.41-.82-.81-1.34-1.24-2.14-.73-1.33-1.84-3.58-1.47-4.84,0-.08.08,0,.13,0a3.72,3.72,0,0,1,.51,1.06,15.42,15.42,0,0,0,.65,1.5c.45.91.87,2,1.35,2.86.77,1.38,1.75,2.87,1.22,4.07a1.38,1.38,0,0,1-.92.79c-.36.11-1,.06-1.15.59a8.61,8.61,0,0,0,.16,2c0,.65.1,1.54-.3,1.76C405,189.85,404.59,189.3,404.62,189.16Z" style="fill:#263238"></path><path d="M394.22,185.33c.71-.43.29-1.11-.66-2.46s-1.31-2.63-.86-1.91a4.7,4.7,0,0,0,2.51,2.17c1.27.4,3.18-1.2,3.79-3.28a6.34,6.34,0,0,1-.31,1.25,4.72,4.72,0,0,0-.34,1.08c0,.61.53,1.56,1,1.35a.61.61,0,0,0,.14-.1,5.78,5.78,0,0,1-3.88,2.63C394.17,186.24,393.51,185.75,394.22,185.33Z" style="fill:#263238"></path><path d="M402.79,186.15a2.9,2.9,0,0,1-2.36,2.88,1.82,1.82,0,0,0,2.33-.54,3.72,3.72,0,0,0,.62-2Z" style="fill:#263238"></path><path d="M406.65,190c1,1.83.74,3.79.89,4.9a10.81,10.81,0,0,0,1,3c.25.46-.58-.2-1.25-1.86s-1.05.3-1.57.26-.06-.84.43-1.63S407.15,192.82,406.65,190Z" style="fill:#263238"></path></g><path d="M399.54,203.66c-5.61-4.59-11-13.56-13.06-17.66-2.44-4.82-7.65-16.85-3.49-24.39,1.76-3.19,4.35-4.4,7.49-3.5,3.84,1.1,7.92,5.24,10.08,8.61a40,40,0,0,1,3.17,6.14,26.3,26.3,0,0,0,3.1,5.66,34.92,34.92,0,0,0,4.82,5.07,25.46,25.46,0,0,1,4.65,5.13c3,4.92,3.85,10.41,2.2,15.05-1.33,3.79-3.8,5.65-7.11,5.59S404.11,207.4,399.54,203.66ZM385,164.27c-3.41,6.19,1.07,16.46,3.15,20.58,1.52,3,6.6,11.75,11.81,16,8.05,6.61,14.18,6.81,16.4.54a12.51,12.51,0,0,0-1.48-11.09,21.66,21.66,0,0,0-3.81-4.07,40.41,40.41,0,0,1-5.41-5.74,32.11,32.11,0,0,1-3.75-6.81,33,33,0,0,0-2.72-5.29c-1.47-2.29-4.87-6-8.22-7a6.05,6.05,0,0,0-1.46-.23C387.67,161.14,386.16,162.18,385,164.27Z" style="fill:#263238"></path><path d="M387,290.81l23.54-13.6a4.57,4.57,0,0,0,2.07-3.58V251.32L367.75,227.1a2.8,2.8,0,0,0-3.5.79l-23.83,32.79c-.47.64-1.41,1.84-1.41,1.84V264a3.93,3.93,0,0,0,2.06,2.6l41.81,24.19A4.6,4.6,0,0,0,387,290.81Z" style="fill:#ED6171"></path><path d="M365.66,226l-26.21,35.3a2.08,2.08,0,0,0,.65,3.11l42.38,24.47a2.73,2.73,0,0,0,3.48-.72l26.2-35.3a2.07,2.07,0,0,0-.64-3.11l-42.38-24.47A2.74,2.74,0,0,0,365.66,226Z" style="fill:#ED6171"></path><path d="M365.66,226l-26.21,35.3a2.08,2.08,0,0,0,.65,3.11l42.38,24.47a2.73,2.73,0,0,0,3.48-.72l26.2-35.3a2.07,2.07,0,0,0-.64-3.11l-42.38-24.47A2.74,2.74,0,0,0,365.66,226Z" style="fill:#fff;opacity:0.25"></path><polygon points="346.8 261.36 368.7 231.87 392.55 245.64 370.65 275.13 346.8 261.36" style="fill:#263238"></polygon><polygon points="370.65 275.13 391.91 246.49 369.04 233.28 347.77 261.92 370.65 275.13" style="fill:#37474f"></polygon><g id="freepik--Keyboard--inject-80"><g id="freepik--keyboard--inject-80"><path d="M322.06,272.69a.63.63,0,0,1,.36-.51l14.73-8.5a2,2,0,0,1,1.76,0l45,26a.61.61,0,0,1,.36.5v1.55a.61.61,0,0,1-.36.5l-14.73,8.51a1.93,1.93,0,0,1-1.75,0l-45-25.91a.61.61,0,0,1-.36-.5Z" style="fill:#ED6171"></path><path d="M322.06,272.69a.63.63,0,0,1,.36-.51l14.73-8.5a2,2,0,0,1,1.76,0l45,26a.61.61,0,0,1,.36.5v1.55a.61.61,0,0,1-.36.5l-14.73,8.51a1.93,1.93,0,0,1-1.75,0l-45-25.91a.61.61,0,0,1-.36-.5Z" style="fill:#fff;opacity:0.25"></path><path d="M369.14,299.11l14.73-8.46a.53.53,0,0,0,0-1l-45-26a2,2,0,0,0-1.76,0l-14.73,8.5a.54.54,0,0,0,0,1l45,25.91A1.93,1.93,0,0,0,369.14,299.11Z" style="fill:#ED6171"></path><path d="M369.14,299.11l14.73-8.46a.53.53,0,0,0,0-1l-45-26a2,2,0,0,0-1.76,0l-14.73,8.5a.54.54,0,0,0,0,1l45,25.91A1.93,1.93,0,0,0,369.14,299.11Z" style="fill:#fff;opacity:0.6000000000000001"></path><path d="M368.32,299.32v1.58a1.85,1.85,0,0,0,.83-.2l14.71-8.5a.63.63,0,0,0,.37-.51v-1.55a.62.62,0,0,1-.37.51l-14.71,8.46A1.85,1.85,0,0,1,368.32,299.32Z" style="fill:#ED6171"></path><path d="M324.73,272.75v0l1.46-.84,2,1.14-1.47.87-2-1.14Zm2.28-1.32h0l1.46-.85,1.56.9-1.47.87-1.55-.89Zm.48,2.92a0,0,0,0,1,0,0l1.45-.84,1.56.89-1.47.87-1.55-.89Zm1.81-4.23s0,0,0,0l1.45-.84,2.51,1.45-1.46.87-2.51-1.45Zm.05,2.66h0l1.46-.85,1.23.72-1.46.87-1.24-.71Zm.48,2.92v0l1.46-.84,1.55.89-1.46.87-1.55-.89Zm1.54-1.75v0l1.46-.84,1.23.71-1.46.87-1.24-.71Zm.21-5.15v0l1.46-.84,2,1.14-1.46.87-2-1.14Zm.59,8.25v0l1.46-.84,11.22,6.48-1.47.87-11.22-6.48Zm.42-5v0l1.46-.84,1.23.71-1.46.87-1.24-.71Zm.8,3.1v0l1.46-.84,1.23.71-1.47.87-1.23-.71Zm.47-7.64s0,0,0,0l1.46-.84,1.23.71-1.46.87-1.24-.71Zm.48,2.92v0l1.46-.85,1.23.72-1.46.87-1.24-.71Zm.27,2.78h0l1.46-.85,1.23.72-1.47.87-1.23-.71Zm.8,3.1v0l1.46-.84,1.23.71-1.47.87-1.23-.71Zm.47-7.63v0l1.46-.84,1.23.71-1.47.87-1.23-.71Zm.48,2.91v0l1.46-.84,1.23.71-1.47.87-1.23-.71Zm.27,2.79a0,0,0,0,1,0,0l1.46-.84,1.23.71-1.47.87-1.23-.71Zm0-8.47v0l1.46-.84,1.55.9-1.47.87-1.55-.9Zm.8,11.57v0l1.46-.84,1.23.71-1.47.87-1.23-.71Zm.47-7.64v0l1.46-.84,1.23.72-1.47.87-1.23-.72Zm.48,2.92v0l1.46-.84,1.23.71-1.47.87-1.23-.71Zm.27,2.79v0l1.46-.84,1.23.71-1.47.87-1.23-.71Zm.8,3.09v0l1.46-.84,1.23.72-1.47.86-1.23-.71Zm.4-10.87s0,0,0,0l1.46-.84,1.23.71-1.47.87-1.23-.71Zm.07,3.24s0,0,0,0l1.46-.84,1.23.71-1.47.87-1.23-.71Zm.48,2.91v0l1.46-.84,1.23.71-1.47.87-1.23-.71Zm.27,2.79s0,0,0,0l1.46-.84,1.23.71-1.47.87-1.23-.71Zm.8,3.1s0,0,0,0l1.45-.84,1.24.71-1.47.87-1.23-.71Zm.4-10.87s0,0,0,0l1.45-.84,1.24.71-1.47.87-1.23-.71Zm.07,3.23h0l1.45-.85,1.24.72-1.47.87-1.23-.71Zm.48,2.92s0,0,0,0l1.46-.84,1.23.71-1.47.87-1.23-.71Zm.27,2.79s0,0,0,0l1.45-.84,1.24.71-1.47.87-1.23-.71Zm.8,3.09h0l1.45-.85,1.24.72-1.47.87-1.23-.71Zm.39-10.87v0l1.46-.84,1.24.71-1.47.87-1.23-.71Zm.08,3.24s0,0,0,0l1.45-.84,1.24.71-1.47.87-1.23-.71Zm.22,10.67v0l1.46-.84,1.55.9-1.47.87-1.55-.9Zm.26-7.76s0,0,0,0l1.45-.84,1.24.72-1.47.87-1.23-.72Zm.26,2.79v0l1.46-.84,1.24.72-1.47.87-1.23-.72Zm.81,3.1s0,0,0,0l1.45-.84,1.24.71-1.47.87-1.23-.71Zm.39-10.87v0l1.46-.84,1.24.71-1.47.87-1.23-.71Zm.07,3.24a0,0,0,0,1,0,0l1.45-.84,1.24.71-1.47.87-1.23-.71Zm.49,2.91s0,0,0,0l1.45-.84,1.24.71-1.47.87-1.23-.71Zm.06,7.94s0,0,0,0l1.46-.84,1.55.9-1.47.87-1.55-.9Zm.2-5.15v0l1.46-.84,1.24.71-1.47.87-1.23-.71Zm.8,3.1v0l1.46-.84,1.24.71-1.47.87-1.23-.71Zm.47-7.64v0l1.46-.84,1.24.71-1.47.87-1.23-.71Zm.48,2.91h0l1.45-.85,1.24.72-1.47.87-1.23-.71Zm.27,2.79h0l1.46-.85,1.23.72-1.46.87-1.23-.71Zm.06-8.43a0,0,0,0,1,0,0l1.46-.84,1.23.71-1.46.87-1.24-.71Zm.05,13.77,0,0,1.45-.84,1.56.9-1.47.87-1.55-.9Zm.69-2.24v0l1.46-.84,1.23.71-1.46.87-1.23-.71Zm.47-7.63v0l1.46-.84,1.23.71-1.46.87-1.23-.71Zm.48,2.91a0,0,0,0,1,0,0l1.46-.84,1.24.71-1.47.87-1.23-.71Zm.27,2.79v0l1.46-.84,1.23.71-1.46.87-1.24-.71Zm.06-8.43v0l1.46-.84,1.23.71-1.47.87-1.23-.71Zm.37,13.95v0l1.46-.84,2,1.14-1.47.87-2-1.14Zm.37-2.42v0l1.46-.84,3.89,2.24-1.47.87-3.89-2.24ZM352,278s0,0,0,0l1.46-.84,1.23.72-1.46.87L352,278Zm.48,2.92v0L354,280l1.23.71-1.46.87-1.23-.71Zm.27,2.79v0l1.46-.84,1.23.71-1.47.87-1.23-.71Zm.06-8.44v0l1.46-.84,1.23.71-1.47.87-1.23-.71Zm1.21,3.9v0l1.46-.84,1.23.71-1.47.87-1.23-.71Zm.33,10.73v0l1.46-.84,1.23.71-1.47.87-1.23-.71Zm.15-7.82v0l1.46-.84,1.23.71-1.46.87-1.24-.71Zm.27,2.79v0l1.46-.84,1.13.65a.67.67,0,0,0,.35.08.75.75,0,0,0,.37-.08l1.92-1.11,1.44.84-3.74,2.19-2.94-1.7Zm.06-8.43s0,0,0,0l1.46-.84,1.23.71-1.47.87-1.23-.71Zm1.21,3.89h0l1.46-.85,1.23.72-1.47.87-1.23-.71ZM356.4,291a0,0,0,0,1,0,0l1.46-.85,1.23.72-1.47.87-1.23-.71Zm.15-7.82a0,0,0,0,1,0,0l1.46-.84,1.23.71-1.47.87-1.23-.71Zm1.21-5.14s0,0,0,0l1.45-.84,1.24.71-1.47.87-1.23-.71Zm.33,3.39a0,0,0,0,1,0,0l1.46-.84,1.23.71-1.47.87-1.23-.71Zm.33,10.73s0,0,0,0l1.46-.84,1.23.71-1.47.87-1.23-.71Zm.26-2.48a0,0,0,0,1,0,0l1.46-.84,1.23.71-1.46.87-1.24-.71Zm1.09-10.47,0,0,1.45-.85,1.24.72L361,280l-1.23-.71Zm.34,3.39s0,0,0,0l1.46-.84,2.19,1.26-1.47.87-2.19-1.26Zm.75,11s0,0,0,0l1.46-.84,3.25,1.88-1.46.87-3.26-1.88Zm.37-7.69s0,0,0,0l1.45-.84,1.24.71-1.47.87-1.23-.71Zm.56-5.51a0,0,0,0,1,0,0l1.46-.84,1.24.71-1.47.87-1.23-.71Zm1.36,11.88s0,0,0,0l1.45-.85,1.24.72-1.47.87-1.23-.71Zm.1-5.21v0l1.45-.84,1.24.71-1.47.88-1.23-.72Zm.26-2.48a0,0,0,0,1,0,0l1.46-.84,1.23.71-1.47.87-1.23-.71Zm.3-3v0l1.46-.84,1.23.71-1.46.87-1.23-.71Zm1.09,14.36v0l1.46-.84,1.23.72-1.46.87L364.9,296Zm.26-2.48v0l1.46-.84,1.24.71-1.47.87-1.23-.71Zm.1-5.21v0l1.46-.84,1.24.71-1.47.87-1.23-.71Zm.17,2.73s0,0,0,0l1.45-.84,1.24.71-1.47.87-1.23-.71Zm.1-5.21s0,0,0,0l1.46-.85,1.23.72-1.47.87-1.23-.71Zm.75-2.77v0l1.46-.84,1.23.71-1.47.87-1.23-.71Zm.64,14.11v0l3.74-2.16,1.23.71-3.74,2.19-1.24-.71Zm.26-2.48v0l1.46-.84,1.24.71-1.47.87-1.23-.71Zm.27-2.49v0l1.45-.84,1.24.71-1.47.87-1.23-.71Zm.1-5.21s0,0,0,0l1.45-.84,1.24.71-1.47.87-1.23-.71Zm.16,2.73a0,0,0,0,1,0,0l1.46-.84,1.23.71-1.47.87-1.23-.71Zm.59-5.49s0,0,0,0l1.46-.84L371,284l-1.47.87-1.23-.71Zm1.17,9.14s0,0,0,0l1.45-.84,1.24.71-1.47.87-1.23-.71Zm.26-2.48s0,0,0,0l1.46-.85,1.23.72-1.47.87-1.23-.71Zm.26-2.49v0l1.46-.84,1.23.71-1.47.87-1.23-.71Zm.33-3v0l1.45-.84,1.24.71-1.47.87-1.23-.71Zm1.16,9.14s0,0,0,0l3.74-2.15,1.24.71-3.75,2.19-1.23-.71Zm.27-2.48s0,0,0,0l1.46-.84,1.23.71-1.47.87-1.23-.71Zm.26-2.48v0l1.46-.84,1.23.71-1.47.87-1.23-.71Zm1.34-3.11h0L374,286l1.23.71-.63.39-1.23-.7Zm.68,4.27s0,0,0,0l1.46-.84,1.23.72-1.47.87-1.23-.72Zm1.34-3.1s0,0,0,0l.62-.36,1.23.71-.63.39-1.23-.71Zm.68,4.27s0,0,0,0l1.46-.84,1.23.71-1.47.87-1.23-.71Zm1.33-3.1,0,0,.61-.37,1.24.71-.64.4-1.22-.71Zm2,1.16v0l.62-.36,1.24.71-.64.39-1.22-.71Z" style="fill:#fafafa"></path></g></g><path d="M380.35,268.72s0,0,0-.05l1.7-2.3,2.4,1.39-1.69,2.37-2.4-1.38Z" style="fill:#fafafa"></path><path d="M384.29,271s0,0,0,0l1.69-2.31,2.41,1.39-1.69,2.38L384.3,271Z" style="fill:#fafafa"></path><path d="M383,265.11v0l1.7-2.31,2.41,1.39-1.69,2.37L383,265.14Z" style="fill:#fafafa"></path><path d="M388.22,273.27a.07.07,0,0,1,0,0l1.69-2.3,2.41,1.39-1.69,2.37-2.4-1.39Z" style="fill:#fafafa"></path><path d="M386.94,267.39a.08.08,0,0,1,0-.05l1.7-2.31,2.4,1.4-1.69,2.37-2.4-1.39Z" style="fill:#fafafa"></path><path d="M385.65,261.51s0,0,0-.05l1.69-2.31,2.41,1.39-1.69,2.38-2.4-1.39Z" style="fill:#fafafa"></path><path d="M390.88,269.66s0,0,0-.05l1.7-2.3,2.4,1.39-1.69,2.37-2.4-1.38Z" style="fill:#fafafa"></path><path d="M389.59,263.78a.07.07,0,0,1,0,0l1.69-2.3,2.41,1.39L392,265.19l-2.41-1.39Z" style="fill:#fafafa"></path><path d="M388.31,257.9s0,0,0,0l1.7-2.3,2.4,1.39-1.69,2.37-2.4-1.39Z" style="fill:#fafafa"></path><path d="M393.53,266.05a0,0,0,0,1,0,0l1.7-2.31,2.41,1.39-1.7,2.38-2.4-1.39Z" style="fill:#fafafa"></path><path d="M392.25,260.17a0,0,0,0,1,0,0l1.69-2.31,2.41,1.39-1.69,2.37-2.4-1.38Z" style="fill:#fafafa"></path><path d="M396.18,262.44s0,0,0,0l1.69-2.31,2.41,1.39-1.69,2.38-2.4-1.39Z" style="fill:#fafafa"></path><path d="M403.76,366.58a11.88,11.88,0,0,1-10.74,0c-3-1.71-3-4.49,0-6.2a11.88,11.88,0,0,1,10.74,0C406.73,362.09,406.73,364.87,403.76,366.58Z" style="fill:#ED6171;opacity:0.2"></path><path d="M405,362.62V336.35a6.61,6.61,0,0,0-13.22,0v26.27a3.25,3.25,0,0,0,1.93,2.7,10.36,10.36,0,0,0,9.36,0A3.27,3.27,0,0,0,405,362.62Z" style="fill:#ED6171"></path><path d="M405,362.62V336.35a6.61,6.61,0,0,0-13.22,0v26.27a3.25,3.25,0,0,0,1.93,2.7,10.36,10.36,0,0,0,9.36,0A3.27,3.27,0,0,0,405,362.62Z" style="fill:#fff;opacity:0.8"></path><path d="M402.51,343.47v18c0,3.35-5.95,4.93-9.78,3.08a4.81,4.81,0,0,0,1,.73,10.36,10.36,0,0,0,9.36,0,3.27,3.27,0,0,0,1.93-2.7V336.35a6.61,6.61,0,0,0-6.61-6.61v1.88C401.9,334.16,402.51,335.26,402.51,343.47Z" style="fill:#ED6171;opacity:0.2"></path><path d="M401.55,324.81v6.38a1.58,1.58,0,0,1-.93,1.29,4.94,4.94,0,0,1-4.46,0,1.58,1.58,0,0,1-.93-1.29v-6.38Z" style="fill:#37474f"></path><path d="M400.62,326.1a4.94,4.94,0,0,1-4.46,0c-1.24-.71-1.24-1.86,0-2.58a4.94,4.94,0,0,1,4.46,0C401.86,324.24,401.86,325.39,400.62,326.1Z" style="fill:#455a64"></path><path d="M397.43,325.73a2.34,2.34,0,0,0-1.84-.1,2,2,0,0,0,.57.47,4.22,4.22,0,0,0,1.62.5C398,326.31,397.84,326,397.43,325.73Z" style="fill:#263238"></path><path d="M403.07,343.45a10.3,10.3,0,0,1-9.36,0,3.25,3.25,0,0,1-1.93-2.7v12.56a3.27,3.27,0,0,0,1.93,2.71,10.36,10.36,0,0,0,9.36,0,3.29,3.29,0,0,0,1.93-2.71V340.75A3.27,3.27,0,0,1,403.07,343.45Z" style="fill:#fafafa"></path><path d="M403.07,343.45c-.18.11-.38.18-.56.27v12.56c.18-.09.38-.16.56-.26a3.29,3.29,0,0,0,1.93-2.71V340.75A3.27,3.27,0,0,1,403.07,343.45Z" style="fill:#ebebeb"></path><g id="freepik--Button--inject-80"><path d="M437.29,292.21a.6.6,0,0,0-.24-.54l-1.32-.76a.61.61,0,0,0-.59.06l-11.95,6.9a1.87,1.87,0,0,0-.84,1.46v4.12a.56.56,0,0,0,.25.54l1.31.76a.56.56,0,0,0,.59-.06l11.95-6.9a1.84,1.84,0,0,0,.84-1.45Z" style="fill:#ED6171"></path><path d="M423.93,304.76h0L422.6,304a.59.59,0,0,1-.25-.54v-4.12a1.61,1.61,0,0,1,.18-.69l1.31.75a1.65,1.65,0,0,0-.18.7v4.12A.57.57,0,0,0,423.93,304.76Z" style="opacity:0.2"></path><path d="M437,291.65a.62.62,0,0,0-.56.08l-11.95,6.9a1.76,1.76,0,0,0-.66.76l-1.31-.75a1.79,1.79,0,0,1,.66-.77l11.95-6.9a.61.61,0,0,1,.59-.06Z" style="fill:#fff;opacity:0.2"></path></g><g id="freepik--button--inject-80"><path d="M437.29,308.2a.58.58,0,0,0-.24-.54l-1.32-.76a.56.56,0,0,0-.59.06l-11.95,6.9a1.87,1.87,0,0,0-.84,1.45v4.13a.58.58,0,0,0,.25.54l1.31.76a.61.61,0,0,0,.59-.06l11.95-6.9a1.85,1.85,0,0,0,.84-1.46Z" style="fill:#ED6171"></path><path d="M423.93,320.74h0L422.6,320a.61.61,0,0,1-.25-.55v-4.12a1.65,1.65,0,0,1,.18-.69l1.31.76a1.65,1.65,0,0,0-.18.69v4.12A.56.56,0,0,0,423.93,320.74Z" style="opacity:0.2"></path><path d="M437,307.64a.59.59,0,0,0-.56.08l-11.95,6.9a1.71,1.71,0,0,0-.66.76l-1.31-.76a1.76,1.76,0,0,1,.66-.76l11.95-6.9a.56.56,0,0,1,.59-.06Z" style="fill:#fff;opacity:0.2"></path></g></g></g><g id="freepik--character-2--inject-80"><g id="freepik--Character--inject-80"><g id="freepik--Bottom--inject-80"><g id="freepik--bottom--inject-80"><polygon points="269.55 366.2 266.11 364.63 269.49 363.71 269.55 366.2" style="fill:#263238"></polygon><path d="M235.56,372.42s40.37-17.6,40.89-15a3.71,3.71,0,0,1,0,1.56,1.34,1.34,0,0,1,.11-.14l-.72,4.84a12.32,12.32,0,0,1-6.28,2.54c0-.23,0-1.67-.06-2.49a20.76,20.76,0,0,0-3.56,1.82c-2.58,1.65-4.23,4.51-7,7.84-2,2.43-5.56,3.58-10.86,4.32-5.7.81-10.74-.2-12.16-1.64C234.81,374.9,235.36,372.76,235.56,372.42Z" style="fill:#263238"></path><path d="M236.67,371.52c.39-.39,1.82-1.91,3.77-3.57a73.27,73.27,0,0,1,5.8-4.76,22,22,0,0,0,2.89-2.29c.7-.73,1.37-1.48,2-2.26a41.59,41.59,0,0,0,4.83-7.9,17.53,17.53,0,0,0,1.67-4.14,24.54,24.54,0,0,0,.45-4.59c0-6.94-.16-8-.23-13.32l17.11.43c-.54,2.93-1.37,6.93-1.64,10.25-.41,5.06-.55,6.19,1.56,11.22.63,1.48,1.55,2.9,1.64,4.49.15,2.59-2,4.83-4.36,6.11-2,1.07-4.26,1.53-6.17,2.66a19.46,19.46,0,0,0-5,4.73c-1.35,1.67-2.43,3.63-4.34,4.8a18.24,18.24,0,0,1-6.58,2.21,37.66,37.66,0,0,1-8.85.48C237,375.79,233.86,374.36,236.67,371.52Z" style="fill:#ffa8a7"></path><path d="M252.42,363.5a8.06,8.06,0,0,0-6.28-.5c-3,2.27-5.43,4.28-7.16,5.68-2.11,1.71-3.95,3.26-3.86,5.2.14,3,12.59,3.87,19.51.94a8.46,8.46,0,0,0,4.89-4.11S258.46,366.47,252.42,363.5ZM276,352.44a32,32,0,0,1-1.49-2.95c-2.4,1.26-6.56,7-4.59,12.77a9.25,9.25,0,0,0,6.06-4A5.24,5.24,0,0,0,276,352.44Z" style="fill:#37474f"></path><path d="M307.43,354.69c-1.12,1.74.29,8.28,0,12.95-.25,4.23-1.44,11.62-.12,15.8,1.57,5,4.77,10.7,10.8,6,3.73-2.9,5.88-6.63,6.42-12.73.37-4.24-1.35-10.09-2.82-15.29-1.72-6.06-2.37-9.31-2.37-9.31Z" style="fill:#263238"></path><path d="M319.52,323.33c.44,9.89-.78,16.84-.85,23.17a42,42,0,0,0,1,8.55c.88,4,2.37,9.66,3,12.28.88,3.65,1.54,6,.2,10.06a4.38,4.38,0,0,1-.44.93c-1.87,3.38-6.63,5.94-8.15,5.53a2.72,2.72,0,0,1-2.68.88,3.14,3.14,0,0,1-.51-.12,3,3,0,0,1-.5-.19,5,5,0,0,1-2.54-3.11c-.09-.28-.17-.57-.24-.89a35.49,35.49,0,0,1-.5-10.5c0-2.75,0-5.41-.24-9.12s-.85-15.06-2.22-20.63c-1-3.88-2.27-8.76-3.61-14Z" style="fill:#ffa8a7"></path><path d="M323.56,372.09c-3.76-1.56-14.64-1.78-16.37,3.22,0,4.7-.07,7.89,3.07,12,4.19,5.44,9.65-.32,11.74-4S324.07,374.62,323.56,372.09Z" style="fill:#37474f"></path><path d="M305.33,194.18c5.3,9,9.58,16.52,11,40.21,1.56,26.72,1.32,36.9,1.46,40.13s2.34,9.14,4.21,25-.1,54.4-.1,54.4-1.32,2.59-7.76,3.18c-5.94.54-9.43-1.42-9.43-1.42s-9.44-50.57-11.76-60.13-9.12-41-9.12-41l-2.24,30s1.88,8.76.18,22.72-6.08,40.32-6.08,40.32-2.53,2.41-10.29,2.27c-8.26-.16-10-2.32-10-2.32s-1.85-56.72-2-72.52-1.09-56.83,4-80.26Z" style="fill:#455a64"></path><path d="M260.77,217.46c2.58,6.5,11.8,11,15.84,11.89l4.94,24.9v30.33l2.24-30-5.55-30.35S267,223.55,260.77,217.46ZM299.05,214c.68,2.56,1.3,5.14,2,7.71s1.29,5.15,2,7.75a49.66,49.66,0,0,0-.62-8,78.36,78.36,0,0,0-1.6-7.87,67.84,67.84,0,0,0-2.48-7.67,36.78,36.78,0,0,0-3.69-7.23c.86,2.55,1.64,5.08,2.37,7.63S298.4,211.44,299.05,214Zm4.72-5c.92,1.54,1.8,3.1,2.69,4.66l2.61,4.77a20.33,20.33,0,0,0-1.34-5.3,34.22,34.22,0,0,0-2.4-4.95,40,40,0,0,0-3.15-4.54,29.36,29.36,0,0,0-3.86-4c.85,1.64,1.78,3.2,2.7,4.75S302.88,207.49,303.77,209Zm-3.65,72.18c-1.68-8.17-2.89-16.44-4.09-24.71s-2.33-16.57-3.62-24.85c.6,8.35,1.3,16.68,2.24,25s2.06,16.63,3.72,24.88,3.54,16.38,5.43,24.55,3.84,16.32,5.92,24.45q-2.1-12.39-4.55-24.71C303.56,297.61,301.84,289.38,300.12,281.22Zm-38.69-27,1.28-21.8c-1.14,7.21-2,14.45-2.67,21.71s-1.24,14.51-1.2,21.88c.32,7.33.52,36.32,1.48,43.55.67-8.1.45-29.45.45-29.45-.22-3.63,0-10.54-.15-14.14s.11-7.23.26-10.85S261.24,257.83,261.43,254.2Z" style="fill:#37474f"></path></g></g><g id="freepik--Top--inject-80"><path d="M208.1,204.78c.23-.39,1-1,.6-1.47a1,1,0,0,0-.8-.33,8.8,8.8,0,0,0-2.42.52,4.07,4.07,0,0,1-3.07-.25,1,1,0,0,1-.53-.89.91.91,0,0,1,.19-.38,9.69,9.69,0,0,1,2.23-1.84,25.32,25.32,0,0,0,3-3.06,31.94,31.94,0,0,1,2.68-2.52,32.79,32.79,0,0,1,7.6-4.36c6.36-2.73,28.37-12.55,28.37-12.55s7.94-21.24,11.19-28.45,5.85-9.47,13.33-11l1.26,16.62s-5.64,15.78-10.06,28.07c-2.24,6.22-3,7-9,8.59-4.64,1.27-6.4,1.95-14.31,4a71.57,71.57,0,0,0-10.45,3.18,10.23,10.23,0,0,0-5.46,5.49,19.51,19.51,0,0,0-1,2.89c-.42,1.45-.84,3.1-2.15,3.87a7.6,7.6,0,0,1-3.13.61c-2.71.27-2.84,2.87-5.52,2.36a11.82,11.82,0,0,1-3.73-2.13,3.36,3.36,0,0,1-.69-3.59A17.61,17.61,0,0,1,208.1,204.78Z" style="fill:#ffa8a7"></path><path d="M270.46,137.27c-8.26,1.35-11.36,4.25-14.4,11.16s-10.69,28.8-10.69,28.8l-19,8.82a8,8,0,0,1,4,5.21,10.8,10.8,0,0,1-1.18,7.63s17.61-4.32,24.45-5.91,8.35-2.4,11.74-12.15,7.51-20.58,7.51-20.58Z" style="fill:#e6e6e6"></path><path d="M250.24,243l-.09,1.18c-10-5.69-7.24-18-4.62-30l.52-2.33c1.6-7.42,1.35-12.8-.74-16a8.37,8.37,0,0,0-5.74-3.55c-5.44-1-11.44,2.05-18.77,7l-.6-.89c7.55-5.11,13.77-8.28,19.57-7.17a9.5,9.5,0,0,1,6.42,4c2.29,3.47,2.59,8.95.89,16.78l-.51,2.35C244,226.29,241.48,237.56,250.24,243Z" style="fill:#263238"></path><path d="M202.82,218.22a4.25,4.25,0,0,1-.71.69l0,0h0a9.71,9.71,0,0,1-8.69,1.28,4.21,4.21,0,0,1-1.5-.95l0,0a2.46,2.46,0,0,1-.39-.54.31.31,0,0,1-.05-.1,2,2,0,0,1-.17-.53l0-.15s0,0,0-.07l-.51-3.37h0a3.09,3.09,0,0,1,1.42-2.78,8,8,0,0,1,2.68-1.34,25.78,25.78,0,0,0,7.28-3.79l13-10.13a5.16,5.16,0,0,1,4.61-.67,1.59,1.59,0,0,1,1.11,1.16c.08.49.46,3,.53,3.52a1.67,1.67,0,0,1-.8,1.5l-13,10.12a14.36,14.36,0,0,0-4.2,5.31s0,.05-.05.08a3.24,3.24,0,0,1-.28.47A2.4,2.4,0,0,1,202.82,218.22Z" style="fill:#37474f"></path><path d="M192.86,216.72c-2.6-1-2.93-3.28-.74-5a7.94,7.94,0,0,1,2.68-1.34,25.78,25.78,0,0,0,7.28-3.79l13-10.13a5.16,5.16,0,0,1,4.61-.67c1.37.55,1.51,1.75.32,2.67l-13,10.12a14.41,14.41,0,0,0-4.19,5.31,4,4,0,0,1-1.26,1.57A9.73,9.73,0,0,1,192.86,216.72Z" style="fill:#455a64"></path><path d="M209.85,213.55c-.42-.26-.94-.5-1.1-1a3.32,3.32,0,0,1-.1-1c0-1.67-.16-3.34-.25-5a5.21,5.21,0,0,1,.06-1.42,1.92,1.92,0,0,1,.73-1.18,2.93,2.93,0,0,1,2.46,0,9.33,9.33,0,0,1-.19-2,1.58,1.58,0,0,1,.55-1.28,1.74,1.74,0,0,1,1.45,0,9.87,9.87,0,0,1,1.28.48,3.71,3.71,0,0,1-.43-1.33,1.29,1.29,0,0,1,.56-1.22,1.74,1.74,0,0,1,1.36,0,8,8,0,0,1,3.32,1.69,7.7,7.7,0,0,1,1.55,3.12,23.36,23.36,0,0,1,.75,2.52,6,6,0,0,1-1.42,5.13,7.54,7.54,0,0,1-2.7,1.75,17.16,17.16,0,0,1-4.57,1.22A5.13,5.13,0,0,1,209.85,213.55Z" style="fill:#ffa8a7"></path><path id="freepik--Chest--inject-80" d="M311.34,206.91c3.1-2.52.52-6-.59-21.26-.29-3.94,1.06-13.7,1.06-13.7s-2.69-1.59-.35-20.6L295,140.61l-18-1.45-7.5,3.68c-2.44,2.14-6.9,5.54-10.44,10.67-5.11,7.42-5.88,15.48-.37,21.37.08,1.17-1.18,14.72-1.68,19.3-.69,6.35-3.15,9.37.54,12.5C268.32,215.83,296.73,216.47,311.34,206.91Z" style="fill:#ED6171"></path><g id="freepik--Head--inject-80"><g id="freepik--head--inject-80"><g id="freepik--head--inject-80"><path d="M275.78,100.37c-.11.33-1.21.85-1.53,1.13a12.5,12.5,0,0,0-1.9,1.81,10.65,10.65,0,0,0-2.13,5,16.6,16.6,0,0,0,1.13,8.29,49.41,49.41,0,0,0,3.9,7.5l3.73,6.26a2.85,2.85,0,0,0,1,1.18,2.81,2.81,0,0,0,1.38.21q3.6,0,7.2-.2a33.87,33.87,0,0,0,6.6-.74,18.5,18.5,0,0,0,9.35-5.66c1.12-1.26,2.63-3,3-4.71.19-.77-.09-1.48.22-2.24a16.53,16.53,0,0,1,1.86-2.58,14.15,14.15,0,0,0,2.43-6.83c.24-5.05-1.93-12-10.84-15.09C293.84,91.08,279,90.71,275.78,100.37Z" style="fill:#455a64"></path><path d="M276.64,125.69a5.82,5.82,0,0,1-4.87-2.63c-2.29-3.3-2.13-6.31-.6-8.12,1.26-1.48,4-2.16,5.6-.81s1.68,2.41,2.22,3.84,2.53.65,2.66-4.78c4-1.2,4.21-7.4,6.56-9.62,3.69-3.46,8.73-1.73,10.28-.57a6.93,6.93,0,0,1,7.12.53c2.32,1.66,3.59,4.66,3.15,14.28-.45,9.81-2.64,14.86-4.74,17.14-2.33,2.54-5.81,3.22-9.25,2.54l-.69,5.92S289.32,151,278.16,151,277,139.16,277,139.16l2-14.7S278.6,125.61,276.64,125.69Z" style="fill:#ffa8a7"></path><path d="M307.11,112.82l-3.36-2a1.9,1.9,0,0,1,2.65-.69A2,2,0,0,1,307.11,112.82Z" style="fill:#263238"></path><path d="M289.45,110.79l3.78-1a1.91,1.91,0,0,0-2.36-1.39A2,2,0,0,0,289.45,110.79Z" style="fill:#263238"></path><path d="M297,128.59l-3.86-2.4a2.21,2.21,0,0,0,.69,3.1A2.33,2.33,0,0,0,297,128.59Z" style="fill:#b16668"></path><path d="M290.56,116.4a1.53,1.53,0,0,0,3,.42,1.53,1.53,0,1,0-3-.42Z" style="fill:#263238"></path><path d="M293.19,127.58a2.29,2.29,0,0,1,2,2,2.33,2.33,0,0,1-1.32-.34,2.22,2.22,0,0,1-1-1.73A2.55,2.55,0,0,1,293.19,127.58Z" style="fill:#f28f8f"></path><path d="M303.16,117.43a1.53,1.53,0,0,0,3,.42,1.53,1.53,0,1,0-3-.42Z" style="fill:#263238"></path><path d="M311.52,114.39l-.72-.15a22.46,22.46,0,0,0-7.31-.47c-2.38.46-3.25,1.13-4.54,1s-2.2-1-4.64-1.89a25.75,25.75,0,0,0-7.78-1h-.79a1.15,1.15,0,0,0-.95,1.16,2.86,2.86,0,0,0,.65,1.51,1.78,1.78,0,0,1,.21.6,25.44,25.44,0,0,0,.67,4.06,5.23,5.23,0,0,0,.9,1.53,4.27,4.27,0,0,0,.48.47l.28.21a4.2,4.2,0,0,0,.84.48.94.94,0,0,0,.15.06l.22.09.24.08a5.42,5.42,0,0,0,.77.19l.33.06.41,0c3.2.32,4.64-1,5.54-2.44s.85-3.58,2.33-3.43l.14,0a.5.5,0,0,1,.13,0c1.07.35.8,2.28,1.39,3.76a5.84,5.84,0,0,0,.94,1.63,2.85,2.85,0,0,0,.23.26l.12.13.13.12.13.1.13.1.1.08.07.05a5.19,5.19,0,0,0,1.25.61l.11,0a7.35,7.35,0,0,0,1.55.3,4.38,4.38,0,0,0,4.72-2.33,24.19,24.19,0,0,0,1.19-3.88,1.22,1.22,0,0,1,.31-.5,2.55,2.55,0,0,0,.78-1.4A1.25,1.25,0,0,0,311.52,114.39Zm-15.76,4.16a4.26,4.26,0,0,1-1.26,2h0a4.54,4.54,0,0,1-3.58.87,4.12,4.12,0,0,1-3.25-1.85l-.09-.16-.09-.16a1,1,0,0,1-.07-.15l-.06-.13-.05-.11,0-.09-.06-.16h0a4.75,4.75,0,0,1-.14-.46h0l-.06-.27c0-.16-.06-.31-.08-.44s0,0,0-.08v-.08c-.17-1.08-.32-3.17.27-3.58s2.07-.76,4.44-.31l.25,0a10.8,10.8,0,0,1,1.08.29l.41.14a9,9,0,0,1,1,.43l.31.16.34.19.07,0,.12.08a2.34,2.34,0,0,1,.68.62C296.35,116.05,296.11,117.41,295.76,118.55Zm13.93.88a4.34,4.34,0,0,1-2.49,3.15,4.18,4.18,0,0,1-1.8.2,4.06,4.06,0,0,1-3.45-1.91v0l-.06-.1-.06-.12,0-.06a1.42,1.42,0,0,1-.08-.18,1.67,1.67,0,0,1-.08-.2.42.42,0,0,1,0-.1s0,0,0-.06a.19.19,0,0,1,0-.08.14.14,0,0,1,0-.06,5,5,0,0,1-.18-.81c-.16-1.19-.19-2.57.3-3.17s2.31-1.14,4-1.18c.4,0,.76,0,1.1,0h.13l.14,0,.38,0,.14,0,.18,0a2.47,2.47,0,0,1,.29.06c.2,0,.38.09.55.14l.12,0h0l.08,0,.13,0,.16.06.25.13,0,0a2.4,2.4,0,0,1,.57.41C310.44,116.36,310,118.4,309.69,119.43Z" style="fill:#37474f"></path><path d="M303.06,124l-5.73,1.55-.2-7c.34-1,.68-2,1.58-2Z" style="fill:#f28f8f"></path><path d="M285.57,112.08l-10.73,1.33a3.79,3.79,0,0,1,2.37,1.11l8.36-.83Z" style="fill:#37474f"></path></g></g><path d="M294.77,137.49c-5-.88-11.3-4.42-12.65-7.83.52,3.55,3.8,5.81,6.5,7a30.77,30.77,0,0,0,6,1.92Z" style="fill:#f28f8f"></path></g><path d="M295.62,140.74s-4.72,8.9-4.52,26,2.2,68.47,3.28,94.31c17.64-1,25.92-8.21,25.92-8.21s-1.52-18.38-2.72-34.2c-1.23-16.28-4.36-24.47-3.59-35.23,2.2-30.69-3.25-35.87-3.25-35.87Z" style="fill:#f5f5f5"></path><path d="M277,136l0,3.15s-12.28,10.1-14.77,22.51S257.38,260,257.38,260s-5-1.2-8.12-3.68c2.21-31.76,6.69-82,6.69-82a17.43,17.43,0,0,1-2.72-9.77c.18-5.68,6.51-19.09,17.23-27.24Z" style="fill:#f5f5f5"></path><path d="M260,190c-1.84-10.5-3-22.87-3-22.87l2.07-3.15h-2.57s4-11.09,8.9-17.55A60.65,60.65,0,0,1,277.56,135l-.56,4.18s-10.14,9.87-13,18.78S260,190,260,190Z" style="fill:#e6e6e6"></path><path d="M294.7,138.07a8.71,8.71,0,0,1,3.38,2.09,47.94,47.94,0,0,0,7.32,5l-7.95,22.21-2.51-.72,1.94,4.89-5.36,17.25s-1.3-18.45-.83-29.35a54.86,54.86,0,0,1,3.64-18.1Z" style="fill:#e6e6e6"></path><g id="freepik--Arn--inject-80"><path d="M311.42,148.69c3.21,1.53,6,2.9,7.79,5a24.09,24.09,0,0,1,5.17,10c1.51,5.34,7.77,26.75,7.77,26.75s-7.84,14.28-12.06,11.3c-3.5-2.46-11.7-28.16-11.7-28.16C305.4,163.17,307.51,152.88,311.42,148.69Z" style="fill:#ffa8a7"></path><path d="M318.43,196.3c-.9-3.7-.26-8.18,1.08-10.48,4-6.78,8.58-9.34,8.58-9.34l1.32,4.53Z" style="fill:#f28f8f"></path><path d="M356.21,163.85s.09-.46.92-.83,1.46-.45,2.39-.84,2.43-1.26,2.35-2.2-2.25-.8-3.91-.37a7.66,7.66,0,0,1-4.82.12c-2.18-.57-4.84-.82-6.61.9Z" style="fill:#f28f8f"></path><path d="M361.16,168.87a30.56,30.56,0,0,1,4.76-2,14.59,14.59,0,0,0,3.35-2.14c1.12-.89,2.68-1.77,2.72-2.28s-.7-1.13-1.7-.81c0,0,.57-.81,1.2-1.54s1.49-1.36,1.45-2.13-1.28-.79-2-.31-1.13.82-1.13.82-.53-.62-1.79.42a7.58,7.58,0,0,0-1.33,1.46,7,7,0,0,0-2.32,1.56,13.84,13.84,0,0,0-2.52,1.75,8.09,8.09,0,0,0-3.23,0c-1.31.39-1.56.68-3.58-.38-1.36-.71-3.08-2.1-4.83-2.64s-3.48-.74-5,1.05-2.64,3.16-4.3,4.9c-1.26,1.32-3,2.78-9.11,8.52-4.74,4.45-5.59,5.06-7.87,7.39a17.56,17.56,0,0,0-5.13,10.06c-.8,5.47-.23,8.57,2,9.57,4.77,2.11,11.53-3.45,13.52-6.44s8.12-14.37,10.33-18.29,4.76-6.78,5.84-7.09a25.9,25.9,0,0,1,6.16-.47C358.88,169.87,358.9,170.22,361.16,168.87Z" style="fill:#ffa8a7"></path><path d="M346.53,160.63a10.25,10.25,0,0,0-2.2,2.21c-.69.79-1.39,1.58-2.11,2.34s-1.43,1.54-2.16,2.29-1.86,1.65-2.61,2.38c.68-.8,1.76-1.74,2.46-2.52s1.42-1.55,2.12-2.33l2.13-2.31,1.06-1.16A3.79,3.79,0,0,1,346.53,160.63Z" style="fill:#f28f8f"></path><path d="M370.29,161.64a8.24,8.24,0,0,0-1.21.76,13.61,13.61,0,0,0-1.09.89l-.06,0-.09,0a5.48,5.48,0,0,0-.74.16,5.2,5.2,0,0,0-.72.26,4.83,4.83,0,0,0-1.27.84l-.09.08-.1,0a5.44,5.44,0,0,0-.58,0,4.16,4.16,0,0,0-.61,0c-.2,0-.4,0-.6.08s-.4.1-.6.16a3.91,3.91,0,0,1,1.15-.54,4.52,4.52,0,0,1,.64-.12,3.61,3.61,0,0,1,.66,0l-.2.06a4.4,4.4,0,0,1,1.38-1,4.75,4.75,0,0,1,.8-.28,3.43,3.43,0,0,1,.85-.14l-.14.06a7.71,7.71,0,0,1,1.24-.8A4.81,4.81,0,0,1,370.29,161.64Z" style="fill:#f28f8f"></path><path d="M369.8,158.48a4.19,4.19,0,0,0-.47.66,6.5,6.5,0,0,0-.33.72l0,0-.07,0a7.06,7.06,0,0,0-1.32,1.06,4.43,4.43,0,0,0-.91,1.37l-.07.16h-.17a5.07,5.07,0,0,0-.92.16c-.31.09-.62.19-.92.31a9,9,0,0,0-.88.43c-.3.15-.57.34-.86.51a6,6,0,0,1,.72-.71,5.54,5.54,0,0,1,.85-.58,5.38,5.38,0,0,1,.95-.42,3.85,3.85,0,0,1,1-.23l-.24.17a4.48,4.48,0,0,1,.44-.84,5.1,5.1,0,0,1,.61-.7,5,5,0,0,1,.73-.57,4.87,4.87,0,0,1,.81-.44l-.08.09a3.1,3.1,0,0,1,.48-.7A3,3,0,0,1,369.8,158.48Z" style="fill:#f28f8f"></path><path d="M360.19,164.57a4,4,0,0,1-1.83,0,5.87,5.87,0,0,1-1.71-.63c.31,0,.6.12.89.18l.88.19A16.78,16.78,0,0,0,360.19,164.57Z" style="fill:#f28f8f"></path><path d="M352.12,161.45a7.53,7.53,0,0,0-3.19.53,5.75,5.75,0,0,0-1.37.81,11.67,11.67,0,0,0-1.22,1.13,4.55,4.55,0,0,1,.93-1.45,4.16,4.16,0,0,1,1.45-1A4.41,4.41,0,0,1,352.12,161.45Z" style="fill:#f28f8f"></path><path d="M310.74,147.52c7.53,3.1,10.27,5.2,12.73,11.76s5.2,18.32,5.2,18.32l11.24-10.27a7.59,7.59,0,0,0,.57,6.92c2.17,3.78,4.82,4.16,4.82,4.16s-7.65,14.52-12.38,19.59-8.6,5.43-10.77,5.11-3.22-1.27-4.92-4.72S307,172.27,307,172.27,302.83,156.33,310.74,147.52Z" style="fill:#e0e0e0"></path><path d="M328.67,177.6c-4.69,3.27-8.23,7.23-9.38,12.57,0-7.63,4.08-12,8.84-14.81Z" style="opacity:0.15"></path></g></g></g></g><g id="freepik--character-1--inject-80"><g id="freepik--Sit--inject-80"><polygon points="178.57 435.24 108.82 394.96 178.57 354.69 248.33 394.96 178.57 435.24" style="fill:#455a64"></polygon><polygon points="178.57 440.58 178.57 435.24 108.82 394.96 108.82 400.31 178.57 440.58" style="fill:#263238"></polygon><polygon points="248.33 394.96 248.33 400.31 178.57 440.58 178.57 435.24 248.33 394.96" style="fill:#37474f"></polygon><polygon points="178.57 384.83 178.57 424.5 127.42 394.96 127.42 355.3 178.57 384.83" style="fill:#37474f"></polygon><polygon points="178.57 384.83 178.57 424.5 229.73 394.96 229.73 355.3 178.57 384.83" style="fill:#263238"></polygon><polygon points="127.42 355.29 178.58 325.76 229.73 355.29 178.57 384.82 127.42 355.29"></polygon><polygon points="178.57 343.95 178.57 381.54 127.42 352 127.42 314.42 178.57 343.95" style="fill:#37474f"></polygon><polygon points="178.57 343.95 178.57 381.54 229.73 352 229.73 314.42 178.57 343.95" style="fill:#263238"></polygon><polygon points="229.2 352.31 229.2 354.99 178.57 384.22 178.57 381.54 229.2 352.31"></polygon><polygon points="127.95 352.31 127.95 354.99 178.57 384.22 178.57 381.54 127.95 352.31" style="fill:#263238"></polygon><polygon points="127.42 314.42 178.58 284.88 229.73 314.42 178.57 343.95 127.42 314.42"></polygon><polygon points="178.57 303.07 178.57 340.65 127.42 311.12 127.42 273.53 178.57 303.07" style="fill:#37474f"></polygon><polygon points="178.57 303.07 178.57 340.65 229.73 311.12 229.73 273.53 178.57 303.07" style="fill:#263238"></polygon><polygon points="229.2 311.43 229.2 314.11 178.57 343.34 178.57 340.65 229.2 311.43"></polygon><polygon points="127.95 311.43 127.95 314.11 178.57 343.34 178.57 340.65 127.95 311.43" style="fill:#263238"></polygon><polygon points="115.15 172.78 51.25 209.68 121.83 282.44 179.81 315.91 265.46 365.48 329.36 328.59 243.72 279.02 185.74 245.55 115.15 172.78" style="fill:#263238"></polygon><polygon points="265.46 365.48 179.81 315.91 121.83 282.44 51.25 209.68 51.25 222.48 114.38 288.88 175.16 323.97 265.46 376.22 265.46 365.48" style="fill:#455a64"></polygon><polygon points="329.36 328.59 329.36 339.32 265.46 376.22 265.46 365.48 329.36 328.59" style="fill:#37474f"></polygon><path d="M238.17,265.05l-43.1-24.81a18.31,18.31,0,0,1-3.27-2.55l-71.73-74.13c-.44-.45-.83-.57-1.1-.41h0L55.06,200h0a1.12,1.12,0,0,0-.36,1v10.77a6,6,0,0,0,1.45,3.59L118.83,280a17.63,17.63,0,0,0,3.27,2.55l52.17,30.12a1.29,1.29,0,0,0,1.29.13h0l63.89-36.89h0a1.28,1.28,0,0,0,.54-1.18v-6.54A4,4,0,0,0,238.17,265.05Z" style="fill:#ED6171"></path><path d="M238.17,265.05l-43.1-24.81a18.12,18.12,0,0,1-2.3-1.66l-73.1,42.2a17.81,17.81,0,0,0,2.43,1.77l52.17,30.12a1.29,1.29,0,0,0,1.29.13h0l63.89-36.89h0a1.28,1.28,0,0,0,.54-1.18v-6.54A4,4,0,0,0,238.17,265.05Z" style="fill:#fff;opacity:0.1"></path><path d="M239.45,275.91a1.28,1.28,0,0,0,.54-1.18v-6.54a3.75,3.75,0,0,0-.56-1.83l-72.59,41.91.46.38,7,4a1.29,1.29,0,0,0,1.29.13h0l63.89-36.89Z" style="fill:#ED6171"></path><path d="M239.45,275.91a1.28,1.28,0,0,0,.54-1.18v-6.54a3.75,3.75,0,0,0-.56-1.83l-72.59,41.91.46.38,7,4a1.29,1.29,0,0,0,1.29.13h0l63.89-36.89Z" style="opacity:0.35000000000000003"></path><path d="M174.27,301.94l-43.1-24.81a18,18,0,0,1-3.27-2.55L56.16,200.45c-.8-.83-1.45-.56-1.45.59v10.77a6,6,0,0,0,1.45,3.59L118.83,280a17.63,17.63,0,0,0,3.27,2.55l52.17,30.12c1,.58,1.81.11,1.81-1v-6.55A4,4,0,0,0,174.27,301.94Z" style="fill:#ED6171"></path><path d="M174.27,301.94l-43.1-24.81a18,18,0,0,1-3.27-2.55L56.16,200.45c-.8-.83-1.45-.56-1.45.59v10.77a6,6,0,0,0,1.45,3.59L118.83,280a17.63,17.63,0,0,0,3.27,2.55l52.17,30.12c1,.58,1.81.11,1.81-1v-6.55A4,4,0,0,0,174.27,301.94Z" style="opacity:0.25"></path><path d="M61.2,201.48,117,169.26l4.24-2.45a7.09,7.09,0,0,1,6.78.45c7.17,4.87,12.55,10.36,15.83,16.57a1.93,1.93,0,0,1-.95,2.7L81.43,222Z" style="fill:#ED6171"></path><path d="M61.2,201.48,117,169.26l4.24-2.45a7.09,7.09,0,0,1,6.78.45c7.17,4.87,12.55,10.36,15.83,16.57a1.93,1.93,0,0,1-.95,2.7L81.43,222Z" style="opacity:0.1"></path><path d="M61.2,201.48l4.49,4.57L130.2,168.8c-.71-.52-1.44-1-2.18-1.54a7.08,7.08,0,0,0-6.77-.45L117,169.26Z" style="fill:#fff;opacity:0.05"></path><path d="M128,167.27c.74.5,1.45,1,2.16,1.54L65.69,206l-4.49-4.56,2.68-1.55L117,169.26l4.24-2.45a7.11,7.11,0,0,1,6.77.45Z" style="fill:#ED6171"></path><path d="M128,167.27c.74.5,1.45,1,2.16,1.54L65.69,206l-4.49-4.56,2.68-1.55L117,169.26l4.24-2.45a7.11,7.11,0,0,1,6.77.45Z" style="fill:#fff;opacity:0.05"></path><path d="M81.43,222,61.2,201.48,65.44,199a7.1,7.1,0,0,1,6.78.45c7.16,4.87,12.54,10.36,15.82,16.57a1.92,1.92,0,0,1-1,2.7Z" style="fill:#ED6171"></path><path d="M81.43,222,61.2,201.48,65.44,199a7.1,7.1,0,0,1,6.78.45c7.16,4.87,12.54,10.36,15.82,16.57a1.92,1.92,0,0,1-1,2.7Z" style="opacity:0.2"></path><path d="M177.51,304.59l64.23-37a2,2,0,0,1,2,.2l84.77,48.94a6.31,6.31,0,0,1,2.85,4.93v4.45a2,2,0,0,1-.83,1.85l-64.23,37a2,2,0,0,1-2-.2l-84.77-48.94a6.31,6.31,0,0,1-2.85-4.93v-4.46A2,2,0,0,1,177.51,304.59Z" style="fill:#ED6171"></path><path d="M266.31,365l64.22-37a2,2,0,0,0,.84-1.84v-4.46a5.92,5.92,0,0,0-1-3l-64.22,37a6,6,0,0,1,.95,3v4.45A2,2,0,0,1,266.31,365Z" style="opacity:0.15"></path><path d="M267.14,363.12v-4.45a6.29,6.29,0,0,0-2.85-4.94l-84.77-48.94a1.74,1.74,0,0,0-2.85,1.64v4.46a6.31,6.31,0,0,0,2.85,4.93l84.77,48.94a1.73,1.73,0,0,0,2.85-1.64Z" style="opacity:0.25"></path></g><g id="freepik--character--inject-80"><g id="freepik--bottom--inject-80"><path d="M184,268.28a235.57,235.57,0,0,0,28.58,13.2c11.64,4.44,20.23,7.51,25.46,9.3s8,6,14,9.35a82,82,0,0,0,22,8.74c9.65,2.19,16.09,3.68,21.22,5.81,4.16,1.73,8.68,7.5,13.43,3,3.24-3.07,2.31-7.05,4.56-11.5,1.31-2.58,2.92-5,4-7.72a8.76,8.76,0,0,0,.59-3.36,6.35,6.35,0,0,0-.16-1.74c-.13-.43-.42-.81-.57-1.24a6.74,6.74,0,0,1-.15-1.36,2.84,2.84,0,0,0-1.85-2.28.93.93,0,0,1-.38-.2.84.84,0,0,1-.12-.31,1.61,1.61,0,0,0-1.59-1.08,2.28,2.28,0,0,0-1.82-1.6,3.67,3.67,0,0,0-.83-2,2.75,2.75,0,0,0-1.87-.93c-.67,0-1,.57-1.33,1.08a7,7,0,0,0-.76,2,38.51,38.51,0,0,1-1.2,4.73c-.56,1.35-.8,3-1.43,4.27-1.15,2.35-2.37,5.91-5.55,6.46-2.6.45-12.16-5.48-22.31-12.63-9.62-6.78-18.46-12.77-24.52-16.93s-42.78-24.28-42.78-24.28Z" style="fill:#ffbda7"></path><path d="M316,291.69a5.54,5.54,0,0,0-3.16-2.05c-.58-.18-1.18-.32-1.77-.44a10,10,0,0,0-1.22-.2,2,2,0,0,0-1.07.16c-.11,0-.09.29,0,.3a18.72,18.72,0,0,1,3.68.79,11,11,0,0,1,3.4,1.63C316,292,316.07,291.75,316,291.69Z" style="fill:#f0997a"></path><path d="M317.78,295.1a6.35,6.35,0,0,0-.16-1.74c-.13-.43-.42-.81-.57-1.24a4.49,4.49,0,0,1-.14-1.16,1,1,0,0,0-.26.09c-.54.33-.62,1.07-.7,1.7-.34,2.94-1.92,4.18-4.23,5.61-1.85,1.15-4.11,2.25-4.57,4.6-.32,1.57.52,3.32.72,4.89.29,2.26,1.19,4.54.51,6.83-.93,3.1-3.79,3.79-6.6,3.87,2.22,1.06,4.51,1.35,6.85-.87,3.24-3.07,2.31-7.05,4.56-11.5,1.31-2.58,2.92-5,4-7.72A8.76,8.76,0,0,0,317.78,295.1Z" style="fill:#f0997a;opacity:0.4"></path><path d="M274.89,309.08c-15.43-4.33-22.54-12.15-26.18-15.68s-9.88-5-13.35-7.56-43-23.93-43.32-24.48l-8,6.92,15.57,7.77c3.92,1.78,8.28,3.63,13,5.43,11.64,4.44,20.23,7.51,25.46,9.3s8,6,14,9.35a82,82,0,0,0,22,8.74l.92.21Z" style="fill:#f0997a"></path><path d="M268.56,282.19c-5.72-3.85-18.81-12.87-26.51-17.27s-33.54-20.6-33.54-20.6l15,41.5s9,3.42,12.7,4.62a22.6,22.6,0,0,1,8.8,5.5c2.64,2.42,8.06,6.16,17.12,9.57a194,194,0,0,0,21.05,6.14,28.49,28.49,0,0,1,2.64-8.34c2.27-4.5,4.76-5.44,4.76-5.44S274.28,286,268.56,282.19Z" style="fill:#37474f"></path><path d="M157.24,279.91a236.75,236.75,0,0,0,27.68,15c11.34,5.17,19.72,8.77,24.83,10.89s7.63,6.53,13.33,10.22,13.52,7,22,9.5c9.49,2.8,15.9,6.06,19.39,8.9s8.95,6.89,14,2.7c3.43-2.86,2.75-6.89,5.28-11.19,3.39-5.76,6.88-9.15,5.8-16.35-.05-.34.41-.9.54-1.24a10.61,10.61,0,0,0,.46-1.45,5,5,0,0,0,.08-2.43,2,2,0,0,0-3.61-.64,2,2,0,0,1-.49.54,1.8,1.8,0,0,1-.66.11,2.58,2.58,0,0,0-2,1.39.72.72,0,0,1-.29.39.75.75,0,0,1-.47,0,2.08,2.08,0,0,0-1.81.64,2.65,2.65,0,0,1-.62.63,2.07,2.07,0,0,1-.93.14c-3.06.11-3.74,3.62-5,5.79s-3,5.59-5.45,6.67c-2.2.95-12-7.67-21.65-14.39s-17.61-13.92-23.4-18.45-38.55-25.35-38.55-25.35Z" style="fill:#ffbda7"></path><path d="M288.46,308.69a8.17,8.17,0,0,0-4.6.48,14.93,14.93,0,0,0-2.22.94c-.88.46-1.67,1-2.51,1.56,0,0,0,.18,0,.15.75-.32,1.52-.6,2.26-.93s1.59-.66,2.41-.94a12.32,12.32,0,0,1,2.25-.55c.81-.11,1.61,0,2.41-.1C288.77,309.26,288.7,308.76,288.46,308.69Z" style="fill:#f0997a"></path><path d="M286.67,314.65c-2.18,2-4.43,2.21-7.19,2.87a5.88,5.88,0,0,0-4,2.53c-.89,1.64-.38,3.7.47,5.36s2,3.19,2.55,5a4.5,4.5,0,0,1,.15,2.09,4.61,4.61,0,0,1-.84,1.81,8.93,8.93,0,0,1-8,3.64c2.73,1.26,5.76,1.59,8.66-.83,3.43-2.86,2.75-6.89,5.28-11.19,3-5,6-8.27,6-13.82A13.17,13.17,0,0,0,286.67,314.65Z" style="fill:#f0997a;opacity:0.4"></path><path d="M283.74,325.91c1.63-2.87,3.66-5.53,4.89-8.6a13.58,13.58,0,0,0,.95-4.79,15.43,15.43,0,0,0-.15-2.45,3.92,3.92,0,0,1-.06-.66,2.13,2.13,0,0,1,.26-.63,5.52,5.52,0,0,0,.28-.52l.18-.59a7.14,7.14,0,0,0,.44-2.36,2.15,2.15,0,0,0-1-1.93,1.74,1.74,0,0,0-2,.21,2.46,2.46,0,0,0-.38.41,1.92,1.92,0,0,1-.48.53,1.59,1.59,0,0,1-.71.16,2.54,2.54,0,0,0-.55.1,2.48,2.48,0,0,0-.94.58,2.73,2.73,0,0,0-.34.44,1.7,1.7,0,0,1-.4.6,1.08,1.08,0,0,1-.78.08,1.64,1.64,0,0,0-.54,0,1.79,1.79,0,0,0-.93.51c-.12.12-.23.3-.4.47a1.25,1.25,0,0,1-.68.38c-.51.06-.85,0-1.23.11a3.34,3.34,0,0,0-1.88,1.21,28.08,28.08,0,0,0-2.25,4.34,36.93,36.93,0,0,1-2.62,4.26,9.39,9.39,0,0,1-1.77,1.85,5.78,5.78,0,0,1-1.11.7,1.47,1.47,0,0,1-.76.16,2.91,2.91,0,0,1-.69-.13,19.32,19.32,0,0,1-4.42-2.44c-5.46-3.79-10.58-8-16-11.72s-10.62-7.93-15.71-12.16c-2.54-2.11-5.06-4.25-7.65-6.29s-5.36-3.83-8.09-5.69c-5.48-3.69-11-7.31-16.54-10.93l-14-9.24c11.23,7,19.83,12.4,30.89,19.67,2.76,1.83,5.53,3.62,8.17,5.65s5.14,4.18,7.69,6.28c5.09,4.21,10.27,8.32,15.7,12.07s10.56,8,15.95,11.77a19.64,19.64,0,0,0,4.21,2.37,1.25,1.25,0,0,0,1,0,5.32,5.32,0,0,0,1-.61,9,9,0,0,0,1.65-1.72,33.83,33.83,0,0,0,2.58-4.17c.79-1.39,1.26-3,2.37-4.41a3.88,3.88,0,0,1,2.23-1.38c.43-.09.92-.07,1.23-.11s.47-.31.8-.67A2.3,2.3,0,0,1,283,306c.25,0,.41.06.43,0a2.2,2.2,0,0,0,.26-.44,2.65,2.65,0,0,1,.42-.53,2.9,2.9,0,0,1,1.15-.7c.43-.16,1-.08,1.16-.21s.44-.61.81-.88a2.2,2.2,0,0,1,2.57-.23,2.61,2.61,0,0,1,1.15,2.31,7.4,7.4,0,0,1-.5,2.48l-.2.6a5,5,0,0,1-.31.57,1.83,1.83,0,0,0-.23.5c0,.1,0,.39.05.57a16,16,0,0,1,.11,2.5,14.27,14.27,0,0,1-1.06,4.86C287.5,320.46,285.42,323.07,283.74,325.91Z" style="fill:#f0997a"></path><path d="M243.37,301.52c-6.37-4.91-16.68-13.16-19.85-15.7l-15-41.5a17.87,17.87,0,0,0-5.38-5.61c-1.08,9.87-13.6,18.68-33.9,22.65-18.65,3.65-23.61-1.53-27.77,2.92,0,0,3.62,11.27,12.57,18.5,7,5.68,28.62,15.19,38.19,18.94s15.82,5.4,19.57,8,10,7.12,16.85,10.25,23.42,7.88,23.42,7.88a14,14,0,0,1,2.94-8.68c3.29-4,6-4,6-4S251.18,307.54,243.37,301.52Z" style="fill:#37474f"></path><path d="M223.52,285.82l-24-19.22s5.47-4.69,6.93-14.11c1.16,6.64-1.73,13.68-1.73,13.68l20.12,18.68,11.89,5.76Z" style="fill:#263238"></path></g><g id="freepik--top--inject-80"><g id="freepik--head--inject-80"><path d="M137.63,203a79.64,79.64,0,0,1-9.93,3.05,21.36,21.36,0,0,1-6.16.75c-.85-.05-1.7-.41-2.52-.38a16.69,16.69,0,0,0-3.13.85c-3.2.83-6.22,1.57-8.89-.73a9.32,9.32,0,0,1-3.25-8.22c.24-1.67,1-3.28.87-5-.16-3.09-2.93-5.49-3.45-8.54-.64-3.8,2.29-7.24,2.89-11a24.67,24.67,0,0,0-.08-5.43,18.69,18.69,0,0,1,.93-8.08,12.25,12.25,0,0,1,3.87-5.18,3.17,3.17,0,0,0,.89-.86,3.39,3.39,0,0,0,.33-1.41c.46-4.37,3.6-8.16,7.5-10.15,4.31-2.2,9-2.27,13.71-1.69s9.29,1.4,13.41,4.09c3.73,2.44,6.78,7,5.18,11.58-.45,1.3-1.26,2.49-1.43,3.85s.67,3,2,3a2.76,2.76,0,0,0,2.08-1.43s.43,1.31.44,1.5a4.32,4.32,0,0,1-.19,1.6,5.38,5.38,0,0,1-2.46,2.55c2.32,1,3.26,3.88,3.08,6.4a7.79,7.79,0,0,0,0,2.55,4.73,4.73,0,0,0,.88,1.6c1.09,1.43,2.47,2.67,3.19,4.32,1.54,3.51-1,8-3.34,10.56-2.9,3.29-6.78,5.56-10.7,7.42C141.51,201.47,139.59,202.28,137.63,203Z" style="fill:#263238"></path><path d="M141.08,188.23c-1.13.38-3.32.73-3.51-.59s-.34-2.34-.34-2.34c2.89-.65,5.54-1.36,7.18-2.81,2.33-2.06,4.36-6.2,1.59-17.34-3.08-12.43-6-14.26-8.91-14.78A19.56,19.56,0,0,0,120.22,156c.66,4.06.46,9.33-2.09,12.19,2.14,4.22-.76,6.1-2.62,4.57-3.17-2.61-6.75-1.58-7.85,1.77s1.44,8.67,6.51,9a4.81,4.81,0,0,0,4.39-2.29s1.21,7.11,1.81,10.75.24,5.43-1.46,7.15c-4.3,4.37-4.72,4.72-5.78,6,26.28.64,36.36-3.16,31.94-18.43C145.07,186.65,143,187.56,141.08,188.23Z" style="fill:#ffbda7"></path><polygon points="133.65 160.93 136.51 172.02 142.53 168.3 133.65 160.93" style="fill:#f0997a"></polygon><path d="M137.23,185.3c-4.77.64-13.14.15-16.36-5.18,0,0,1.62,4.26,4.18,5.79,3.79,2.27,12.46,1.35,12.46,1.35Z" style="fill:#f0997a"></path><path d="M128.66,160l-3.13,3.27a2.19,2.19,0,0,1,0-3.11A2.25,2.25,0,0,1,128.66,160Z" style="fill:#263238"></path><path d="M132.37,174l5.14,1.14a2.54,2.54,0,0,1-3.09,1.89A2.61,2.61,0,0,1,132.37,174Z" style="fill:#b16668"></path><path d="M131.19,165.06a1.61,1.61,0,1,1-1.61-1.61A1.61,1.61,0,0,1,131.19,165.06Z" style="fill:#263238"></path><path d="M135.5,177a3.23,3.23,0,0,0-3.07-2.26h-.08a2.65,2.65,0,0,0,2.07,2.23A2.81,2.81,0,0,0,135.5,177Z" style="fill:#f28f8f"></path><path d="M142.53,162.91a1.61,1.61,0,1,1-1.6-1.6A1.61,1.61,0,0,1,142.53,162.91Z" style="fill:#263238"></path><path d="M143,159.14l-4.28-1.08a2.33,2.33,0,0,1,2.78-1.58A2.1,2.1,0,0,1,143,159.14Z" style="fill:#263238"></path></g><path d="M147.14,185.85c4.64-1.72,5.8-2.33,12,2.2,5.29,3.9,12.63,11.2,17.42,16.37,4,4.28,7.52,7.8,6.81,14-.27,2.39-1.86,3.77-4.11,4.39-9,2.48-14.8-5.37-20.49-10.87l-9.36-9Z" style="fill:#ffbda7"></path><path d="M146.51,185.76c4.37-2,8.47-1.73,13.46,1.39s17.23,17.29,17.23,17.29A21.16,21.16,0,0,1,161.09,219L143.7,194.72Z" style="fill:#e0e0e0"></path><path d="M195.52,220.14c-5.21-5.35-11.54-9.23-21-9.79l-46.69,33.74c1.61,2.3,4.09,7.53,6.8,11.47a70.36,70.36,0,0,0,13.48,15.06c27.39,1.23,48.23-8.64,54.54-25.57C203.93,238.26,203.09,227.91,195.52,220.14Z" style="fill:#ffbda7"></path><path d="M202.64,245.05c1.83-13.15-4.47-25-16.13-31.2a33.34,33.34,0,0,0-12-3.5,29.1,29.1,0,0,1,12.37,2.78c12.09,5.93,18.86,18.64,15.76,31.92Z" style="fill:#f0997a"></path><path d="M164.46,194.35a105.83,105.83,0,0,0-17.78-8.68c-1.84.79-5.43,2.5-5.43,2.5,5.79,5.68-5.59,11.7-21.08,9.46,0,0-5.15,3.9-7.63,6.3-1.14,5.82,5.66,22.27,11.2,33.23a51.05,51.05,0,0,0,4.08,6.93c23.87-8.33,42.69-18.44,46.69-33.74C174.56,203.27,170.51,198,164.46,194.35Z" style="fill:#f5f5f5"></path><path d="M156.8,212.88c3.54-2.79,5.2,1.66,12-1.83,3-1.53,3.77,3.32.15,7.54s-12.95,13.37-21.47,15-14.21-1.7-8.72-3.29,9.08-1.36,13.26-6.75S153.7,215.32,156.8,212.88Z" style="fill:#f0f0f0"></path><path d="M196.56,248.18a3,3,0,0,0-.63-.43,3.69,3.69,0,0,0-.58-.23,11.08,11.08,0,0,0,0-1.91c0-.27-.63-.6-.74-.22a15.33,15.33,0,0,0-.35,2.94,3,3,0,0,0,.71,2.55c.17.15.25,0,.29-.15s0-.27,0-.4a1.71,1.71,0,0,0,0-.32c0-.22,0-.44,0-.66,0-.38.05-.76.08-1.15v0a4.29,4.29,0,0,1,.43.16,2.36,2.36,0,0,1,.25.15l.13.09.06,0h0a2.56,2.56,0,0,1,.76,1,.36.36,0,0,0,.34.23.21.21,0,0,0,.16-.28A2.94,2.94,0,0,0,196.56,248.18Z" style="fill:#f0997a"></path><path d="M126.11,266c-5.23-1.5-6.19-3.17-8.91-9.66-3.09-7.39-5.47-13.74-9.78-28.2-4-13.49.77-20.41,5.39-24,3.21,1,9.2,5.06,13.62,21,4.21,14.66,8.19,24.85,8.19,24.85,2.36,1.33,10.24,6.84,17.7,9.22a6.25,6.25,0,0,0,5.68-.43c3-1.62,7.68-1.16,10.75-1.86,2.41-.54,3.59-1.38,4-.9s.15,2.06-1.41,3.59a10.08,10.08,0,0,1-3.78,2.3,11.51,11.51,0,0,0-2.14.66c-.94.53-.16,1,.46,1.33a14,14,0,0,0,3.51.85,26.25,26.25,0,0,0,5.44.58c3.06-.09,6-1.25,9.09-1.07a3,3,0,0,1,1.67.5.7.7,0,0,1,.27.37.61.61,0,0,1-.07.44c-.41.88-1.59,1.16-2,2a5.64,5.64,0,0,0-.31,1,3.06,3.06,0,0,1-1.52,1.81,5.36,5.36,0,0,0-1,.52,4.19,4.19,0,0,0-.83,1.3c-.94,1.72-2.87,2.6-4.69,3.33a35.46,35.46,0,0,1-4.25,1.45,10,10,0,0,1-2.23.42c-3.71,0-9.15-1.64-15.66-4.21S132.42,268,126.11,266Z" style="fill:#ffbda7"></path><path d="M126.43,225.07c2.33,8.09,5.71,17.36,8.32,24.6,5,3.06,10,6.18,15.46,8.28,2.81,1.14,5.35,1.89,8.06.13,4.18-1.77,8.79-.69,12.95-2.48a3.54,3.54,0,0,1,1.27-.27c1.69.42.67,2.82,0,3.65-1.62,2.21-4.19,3.25-6.72,3.91a1.09,1.09,0,0,0-.28.19c0,.06,0-.16,0-.12a4.14,4.14,0,0,0,1.65.77,54,54,0,0,0,6.41,1c2.84.22,5.64-.77,8.66-1a6.16,6.16,0,0,1,3.54.48,1.35,1.35,0,0,1,.55.63,1.14,1.14,0,0,1-.09.92c-.68,1.24-1.82,1.18-2.15,2.31a3.7,3.7,0,0,1-2.18,2.82,2,2,0,0,0-.77.45,4,4,0,0,0-.5.84,7,7,0,0,1-3.46,3.05c-2.76,1.15-5.55,2.44-8.58,2.55-6-.33-11.46-2.88-17-4.9-8-2.69-17.42-4.32-25.47-6.9,8.13,2.41,17.58,3.73,25.66,6.34,5.46,1.92,11,4.38,16.79,4.62,2.82-.16,5.59-1.44,8.17-2.53a6.11,6.11,0,0,0,3-2.65,4.55,4.55,0,0,1,.64-1.05c.84-.79,2-.81,2.43-1.93.28-.62.34-1.63,1-2.11s1.41-.92,1.56-1.48a1.69,1.69,0,0,0-1-.45c-3.64-.4-7,1.3-10.87,1a37,37,0,0,1-4.42-.6c-1.54-.32-3.25-.36-4.44-1.62a.93.93,0,0,1-.16-.58c.31-1.34,2-1.22,3-1.63,2.08-.78,4.57-2.36,5-4.65,0-.26-.18-.52,0-.39a3.35,3.35,0,0,0-.86.23c-4.05,1.76-8.85.74-12.89,2.38a12.65,12.65,0,0,1-2.06.91c-2.28.71-4.57-.29-6.67-1.1-5.5-2.21-10.49-5.45-15.43-8.55-3.22-8.12-5.64-16.66-8-25.09Z" style="fill:#f0997a"></path><path d="M112.73,203.74c-2.59,1.95-6.63,4.55-7.28,11.7S108.58,242,108.58,242s2.35,3.14,9,2.8a17.7,17.7,0,0,0,13.78-7.24s-4.49-14.43-6.36-19S118.65,204.32,112.73,203.74Z" style="fill:#e6e6e6"></path></g></g></g></svg>
